<mxfile host="Electron" agent="Mozilla/5.0 (Windows NT 10.0; Win64; x64) AppleWebKit/537.36 (KHTML, like Gecko) draw.io/25.0.2 Chrome/128.0.6613.186 Electron/32.2.5 Safari/537.36" version="25.0.2">
  <diagram id="qEiKFNh7vSp235oPtFOH" name="Page-1">
    <mxGraphModel dx="1593" dy="967" grid="1" gridSize="10" guides="1" tooltips="1" connect="1" arrows="1" fold="1" page="1" pageScale="1" pageWidth="1100" pageHeight="850" math="0" shadow="0">
      <root>
        <mxCell id="0" />
        <mxCell id="1" parent="0" />
        <mxCell id="2" value="1" style="strokeWidth=1;shadow=0;dashed=0;align=center;html=1;shape=mxgraph.mockup.containers.browserWindow;rSize=0;strokeColor=#666666;strokeColor2=#008cff;strokeColor3=#c4c4c4;mainText=,;recursiveResize=0;fillColor=default;gradientColor=none;" parent="1" vertex="1">
          <mxGeometry x="50" y="20" width="1430" height="800" as="geometry" />
        </mxCell>
        <mxCell id="3" value="Screener" style="strokeWidth=1;shadow=0;dashed=0;align=center;html=1;shape=mxgraph.mockup.containers.anchor;fontSize=16;fontColor=#666666;align=left;fontFamily=Roboto;" parent="2" vertex="1">
          <mxGeometry x="60" y="12" width="110" height="26" as="geometry" />
        </mxCell>
        <mxCell id="4" value="https://www.breakout-screener.com" style="strokeWidth=1;shadow=0;dashed=0;align=center;html=1;shape=mxgraph.mockup.containers.anchor;rSize=0;fontSize=17;fontColor=#666666;align=left;fontFamily=Roboto;" parent="2" vertex="1">
          <mxGeometry x="130" y="60" width="280" height="26" as="geometry" />
        </mxCell>
        <mxCell id="28" value="" style="html=1;shadow=0;dashed=0;fillColor=#E6E6E6;strokeColor=none;fontSize=16;fontColor=#181819;align=left;spacing=15;fontFamily=Helvetica;" parent="2" vertex="1">
          <mxGeometry x="1" y="170" width="240" height="629" as="geometry" />
        </mxCell>
        <mxCell id="31" value="Run date" style="fillColor=none;strokeColor=none;html=1;fontSize=11;fontStyle=0;align=left;fontColor=#596780;fontStyle=1;fontSize=11;fontFamily=Helvetica;" parent="2" vertex="1">
          <mxGeometry x="10" y="178" width="140" height="20" as="geometry" />
        </mxCell>
        <mxCell id="32" value="11 Nov 2015" style="rounded=1;arcSize=9;fillColor=#ffffff;align=left;spacingLeft=5;strokeColor=#0057D8;html=1;strokeWidth=2;fontColor=#253858;fontSize=12;fontFamily=Helvetica;" parent="2" vertex="1">
          <mxGeometry x="10" y="203" width="150" height="33" as="geometry" />
        </mxCell>
        <mxCell id="33" value="" style="shape=mxgraph.gmdl.calendar;fillColor=#253858;strokeColor=none;fontFamily=Helvetica;fontSize=12;" parent="32" vertex="1">
          <mxGeometry x="1" y="0.5" width="18" height="18" relative="1" as="geometry">
            <mxPoint x="-29" y="-9" as="offset" />
          </mxGeometry>
        </mxCell>
        <mxCell id="34" value="" style="shape=mxgraph.mockup.forms.rrect;rSize=5;strokeColor=#DFE1E5;fillColor=#ffffff;shadow=1;fontFamily=Helvetica;fontSize=10;" parent="2" vertex="1">
          <mxGeometry x="10" y="243" width="230" height="227" as="geometry" />
        </mxCell>
        <mxCell id="35" value="November 2015" style="strokeColor=none;fillColor=none;fontColor=#253858;fontSize=10;fontStyle=1;fontFamily=Helvetica;" parent="34" vertex="1">
          <mxGeometry x="43.125" y="10.377142857142857" width="143.75" height="25.942857142857143" as="geometry" />
        </mxCell>
        <mxCell id="36" value="&lt;" style="strokeColor=none;fillColor=none;fontColor=#253858;fontSize=10;fontStyle=1;fontFamily=Helvetica;" parent="34" vertex="1">
          <mxGeometry x="11.5" y="10.377142857142857" width="35.9375" height="25.942857142857143" as="geometry" />
        </mxCell>
        <mxCell id="37" value="&gt;" style="strokeColor=none;fillColor=none;fontColor=#253858;fontSize=10;fontStyle=1;fontFamily=Helvetica;" parent="34" vertex="1">
          <mxGeometry x="182.5625" y="10.377142857142857" width="35.9375" height="25.942857142857143" as="geometry" />
        </mxCell>
        <mxCell id="38" value="SUN" style="strokeColor=none;fillColor=none;fontColor=#999999;fontSize=10;fontStyle=1;fontFamily=Helvetica;" parent="34" vertex="1">
          <mxGeometry x="14.375" y="36.32" width="28.75" height="25.942857142857143" as="geometry" />
        </mxCell>
        <mxCell id="39" value="MON" style="strokeColor=none;fillColor=none;fontColor=#999999;fontSize=10;fontStyle=1;fontFamily=Helvetica;" parent="34" vertex="1">
          <mxGeometry x="43.125" y="36.32" width="28.75" height="25.942857142857143" as="geometry" />
        </mxCell>
        <mxCell id="40" value="TUE" style="strokeColor=none;fillColor=none;fontColor=#999999;fontSize=10;fontStyle=1;fontFamily=Helvetica;" parent="34" vertex="1">
          <mxGeometry x="71.875" y="36.32" width="28.75" height="25.942857142857143" as="geometry" />
        </mxCell>
        <mxCell id="41" value="WED" style="strokeColor=none;fillColor=none;fontColor=#999999;fontSize=10;fontStyle=1;fontFamily=Helvetica;" parent="34" vertex="1">
          <mxGeometry x="100.625" y="36.32" width="28.75" height="25.942857142857143" as="geometry" />
        </mxCell>
        <mxCell id="42" value="THU" style="strokeColor=none;fillColor=none;fontColor=#999999;fontSize=10;fontStyle=1;fontFamily=Helvetica;" parent="34" vertex="1">
          <mxGeometry x="129.375" y="36.32" width="28.75" height="25.942857142857143" as="geometry" />
        </mxCell>
        <mxCell id="43" value="FRI" style="strokeColor=none;fillColor=none;fontColor=#999999;fontSize=10;fontStyle=1;fontFamily=Helvetica;" parent="34" vertex="1">
          <mxGeometry x="158.125" y="36.32" width="28.75" height="25.942857142857143" as="geometry" />
        </mxCell>
        <mxCell id="44" value="SAT" style="strokeColor=none;fillColor=none;fontColor=#999999;fontSize=10;fontStyle=1;fontFamily=Helvetica;" parent="34" vertex="1">
          <mxGeometry x="186.875" y="36.32" width="28.75" height="25.942857142857143" as="geometry" />
        </mxCell>
        <mxCell id="45" value="31" style="strokeColor=none;fillColor=none;fontColor=#999999;fontSize=10;fontFamily=Helvetica;" parent="34" vertex="1">
          <mxGeometry x="14.375" y="62.26285714285714" width="28.75" height="25.942857142857143" as="geometry" />
        </mxCell>
        <mxCell id="46" value="1" style="strokeColor=none;fillColor=none;fontColor=#000000;fontSize=10;fontFamily=Helvetica;" parent="34" vertex="1">
          <mxGeometry x="43.125" y="62.26285714285714" width="28.75" height="25.942857142857143" as="geometry" />
        </mxCell>
        <mxCell id="47" value="2" style="strokeColor=none;fillColor=none;fontColor=#000000;fontSize=10;fontFamily=Helvetica;" parent="34" vertex="1">
          <mxGeometry x="71.875" y="62.26285714285714" width="28.75" height="25.942857142857143" as="geometry" />
        </mxCell>
        <mxCell id="48" value="3" style="strokeColor=none;fillColor=none;fontColor=#000000;fontSize=10;fontFamily=Helvetica;" parent="34" vertex="1">
          <mxGeometry x="100.625" y="62.26285714285714" width="28.75" height="25.942857142857143" as="geometry" />
        </mxCell>
        <mxCell id="49" value="4" style="strokeColor=none;fillColor=none;fontColor=#000000;fontSize=10;fontFamily=Helvetica;" parent="34" vertex="1">
          <mxGeometry x="129.375" y="62.26285714285714" width="28.75" height="25.942857142857143" as="geometry" />
        </mxCell>
        <mxCell id="50" value="5" style="strokeColor=none;fillColor=none;fontColor=#000000;fontSize=10;fontFamily=Helvetica;" parent="34" vertex="1">
          <mxGeometry x="158.125" y="62.26285714285714" width="28.75" height="25.942857142857143" as="geometry" />
        </mxCell>
        <mxCell id="51" value="6" style="strokeColor=none;fillColor=none;fontColor=#000000;fontSize=10;fontFamily=Helvetica;" parent="34" vertex="1">
          <mxGeometry x="186.875" y="62.26285714285714" width="28.75" height="25.942857142857143" as="geometry" />
        </mxCell>
        <mxCell id="52" value="7" style="strokeColor=none;fillColor=none;fontColor=#000000;fontSize=10;fontFamily=Helvetica;" parent="34" vertex="1">
          <mxGeometry x="14.375" y="88.2057142857143" width="28.75" height="25.942857142857143" as="geometry" />
        </mxCell>
        <mxCell id="53" value="8" style="strokeColor=none;fillColor=none;fontColor=#000000;fontSize=10;fontFamily=Helvetica;" parent="34" vertex="1">
          <mxGeometry x="43.125" y="88.2057142857143" width="28.75" height="25.942857142857143" as="geometry" />
        </mxCell>
        <mxCell id="54" value="9" style="strokeColor=none;fillColor=none;fontColor=#000000;fontSize=10;fontFamily=Helvetica;" parent="34" vertex="1">
          <mxGeometry x="71.875" y="88.2057142857143" width="28.75" height="25.942857142857143" as="geometry" />
        </mxCell>
        <mxCell id="55" value="10" style="strokeColor=none;fillColor=none;fontColor=#0057D8;fontSize=10;fontStyle=4;fontFamily=Helvetica;" parent="34" vertex="1">
          <mxGeometry x="100.625" y="88.2057142857143" width="28.75" height="25.942857142857143" as="geometry" />
        </mxCell>
        <mxCell id="56" value="11" style="strokeColor=none;fillColor=#ECEDF0;fontColor=#000000;fontSize=10;rounded=1;arcSize=10;fontFamily=Helvetica;" parent="34" vertex="1">
          <mxGeometry x="129.375" y="88.2057142857143" width="28.75" height="25.942857142857143" as="geometry" />
        </mxCell>
        <mxCell id="57" value="12" style="strokeColor=none;fillColor=none;fontColor=#000000;fontSize=10;fontFamily=Helvetica;" parent="34" vertex="1">
          <mxGeometry x="158.125" y="88.2057142857143" width="28.75" height="25.942857142857143" as="geometry" />
        </mxCell>
        <mxCell id="58" value="13" style="strokeColor=none;fillColor=none;fontColor=#000000;fontSize=10;fontFamily=Helvetica;" parent="34" vertex="1">
          <mxGeometry x="186.875" y="88.2057142857143" width="28.75" height="25.942857142857143" as="geometry" />
        </mxCell>
        <mxCell id="59" value="14" style="strokeColor=none;fillColor=none;fontColor=#000000;fontSize=10;fontFamily=Helvetica;" parent="34" vertex="1">
          <mxGeometry x="14.375" y="114.14857142857143" width="28.75" height="25.942857142857143" as="geometry" />
        </mxCell>
        <mxCell id="60" value="15" style="strokeColor=none;fillColor=none;fontColor=#000000;fontSize=10;fontFamily=Helvetica;" parent="34" vertex="1">
          <mxGeometry x="43.125" y="114.14857142857143" width="28.75" height="25.942857142857143" as="geometry" />
        </mxCell>
        <mxCell id="61" value="16" style="strokeColor=none;fillColor=none;fontColor=#000000;fontSize=10;fontFamily=Helvetica;" parent="34" vertex="1">
          <mxGeometry x="71.875" y="114.14857142857143" width="28.75" height="25.942857142857143" as="geometry" />
        </mxCell>
        <mxCell id="62" value="17" style="strokeColor=none;fillColor=none;fontColor=#000000;fontSize=10;fontFamily=Helvetica;" parent="34" vertex="1">
          <mxGeometry x="100.625" y="114.14857142857143" width="28.75" height="25.942857142857143" as="geometry" />
        </mxCell>
        <mxCell id="63" value="18" style="strokeColor=none;fillColor=none;fontColor=#000000;fontSize=10;fontFamily=Helvetica;" parent="34" vertex="1">
          <mxGeometry x="129.375" y="114.14857142857143" width="28.75" height="25.942857142857143" as="geometry" />
        </mxCell>
        <mxCell id="64" value="19" style="strokeColor=none;fillColor=none;fontColor=#000000;fontSize=10;fontFamily=Helvetica;" parent="34" vertex="1">
          <mxGeometry x="158.125" y="114.14857142857143" width="28.75" height="25.942857142857143" as="geometry" />
        </mxCell>
        <mxCell id="65" value="20" style="strokeColor=none;fillColor=none;fontColor=#000000;fontSize=10;fontFamily=Helvetica;" parent="34" vertex="1">
          <mxGeometry x="186.875" y="114.14857142857143" width="28.75" height="25.942857142857143" as="geometry" />
        </mxCell>
        <mxCell id="66" value="21" style="strokeColor=none;fillColor=none;fontColor=#000000;fontSize=10;fontFamily=Helvetica;" parent="34" vertex="1">
          <mxGeometry x="14.375" y="140.09142857142857" width="28.75" height="25.942857142857143" as="geometry" />
        </mxCell>
        <mxCell id="67" value="22" style="strokeColor=none;fillColor=none;fontColor=#000000;fontSize=10;fontFamily=Helvetica;" parent="34" vertex="1">
          <mxGeometry x="43.125" y="140.09142857142857" width="28.75" height="25.942857142857143" as="geometry" />
        </mxCell>
        <mxCell id="68" value="23" style="strokeColor=none;fillColor=none;fontColor=#999999;fontSize=10;fontFamily=Helvetica;" parent="34" vertex="1">
          <mxGeometry x="71.875" y="140.09142857142857" width="28.75" height="25.942857142857143" as="geometry" />
        </mxCell>
        <mxCell id="69" value="24" style="strokeColor=none;fillColor=none;fontColor=#000000;fontSize=10;fontFamily=Helvetica;" parent="34" vertex="1">
          <mxGeometry x="100.625" y="140.09142857142857" width="28.75" height="25.942857142857143" as="geometry" />
        </mxCell>
        <mxCell id="70" value="25" style="strokeColor=none;fillColor=none;fontColor=#000000;fontSize=10;fontFamily=Helvetica;" parent="34" vertex="1">
          <mxGeometry x="129.375" y="140.09142857142857" width="28.75" height="25.942857142857143" as="geometry" />
        </mxCell>
        <mxCell id="71" value="26" style="strokeColor=none;fillColor=none;fontColor=#000000;fontSize=10;fontFamily=Helvetica;" parent="34" vertex="1">
          <mxGeometry x="158.125" y="140.09142857142857" width="28.75" height="25.942857142857143" as="geometry" />
        </mxCell>
        <mxCell id="72" value="27" style="strokeColor=none;fillColor=none;fontColor=#000000;fontSize=10;fontFamily=Helvetica;" parent="34" vertex="1">
          <mxGeometry x="186.875" y="140.09142857142857" width="28.75" height="25.942857142857143" as="geometry" />
        </mxCell>
        <mxCell id="73" value="28" style="strokeColor=none;fillColor=none;fontColor=#000000;fontSize=10;fontFamily=Helvetica;" parent="34" vertex="1">
          <mxGeometry x="14.375" y="166.03428571428572" width="28.75" height="25.942857142857143" as="geometry" />
        </mxCell>
        <mxCell id="74" value="29" style="strokeColor=none;fillColor=none;fontColor=#000000;fontSize=10;fontFamily=Helvetica;" parent="34" vertex="1">
          <mxGeometry x="43.125" y="166.03428571428572" width="28.75" height="25.942857142857143" as="geometry" />
        </mxCell>
        <mxCell id="75" value="30" style="strokeColor=none;fillColor=none;fontColor=#000000;fontSize=10;fontFamily=Helvetica;" parent="34" vertex="1">
          <mxGeometry x="71.875" y="166.03428571428572" width="28.75" height="25.942857142857143" as="geometry" />
        </mxCell>
        <mxCell id="76" value="1" style="strokeColor=none;fillColor=none;fontColor=#999999;fontSize=10;fontFamily=Helvetica;" parent="34" vertex="1">
          <mxGeometry x="100.625" y="166.03428571428572" width="28.75" height="25.942857142857143" as="geometry" />
        </mxCell>
        <mxCell id="77" value="2" style="strokeColor=none;fillColor=none;fontColor=#999999;fontSize=10;fontFamily=Helvetica;" parent="34" vertex="1">
          <mxGeometry x="129.375" y="166.03428571428572" width="28.75" height="25.942857142857143" as="geometry" />
        </mxCell>
        <mxCell id="78" value="3" style="strokeColor=none;fillColor=none;fontColor=#999999;fontSize=10;fontFamily=Helvetica;" parent="34" vertex="1">
          <mxGeometry x="158.125" y="166.03428571428572" width="28.75" height="25.942857142857143" as="geometry" />
        </mxCell>
        <mxCell id="79" value="4" style="strokeColor=none;fillColor=none;fontColor=#999999;fontSize=10;fontFamily=Helvetica;" parent="34" vertex="1">
          <mxGeometry x="186.875" y="166.03428571428572" width="28.75" height="25.942857142857143" as="geometry" />
        </mxCell>
        <mxCell id="80" value="5" style="strokeColor=none;fillColor=none;fontColor=#999999;fontSize=10;fontFamily=Helvetica;" parent="34" vertex="1">
          <mxGeometry x="14.375" y="191.97714285714287" width="28.75" height="25.942857142857143" as="geometry" />
        </mxCell>
        <mxCell id="81" value="6" style="strokeColor=none;fillColor=none;fontColor=#999999;fontSize=10;fontFamily=Helvetica;" parent="34" vertex="1">
          <mxGeometry x="43.125" y="191.97714285714287" width="28.75" height="25.942857142857143" as="geometry" />
        </mxCell>
        <mxCell id="82" value="7" style="strokeColor=none;fillColor=none;fontColor=#999999;fontSize=10;fontFamily=Helvetica;" parent="34" vertex="1">
          <mxGeometry x="71.875" y="191.97714285714287" width="28.75" height="25.942857142857143" as="geometry" />
        </mxCell>
        <mxCell id="83" value="8" style="strokeColor=none;fillColor=none;fontColor=#999999;fontSize=10;fontFamily=Helvetica;" parent="34" vertex="1">
          <mxGeometry x="100.625" y="191.97714285714287" width="28.75" height="25.942857142857143" as="geometry" />
        </mxCell>
        <mxCell id="84" value="9" style="strokeColor=none;fillColor=none;fontColor=#999999;fontSize=10;fontFamily=Helvetica;" parent="34" vertex="1">
          <mxGeometry x="129.375" y="191.97714285714287" width="28.75" height="25.942857142857143" as="geometry" />
        </mxCell>
        <mxCell id="85" value="10" style="strokeColor=none;fillColor=none;fontColor=#999999;fontSize=10;fontFamily=Helvetica;" parent="34" vertex="1">
          <mxGeometry x="158.125" y="191.97714285714287" width="28.75" height="25.942857142857143" as="geometry" />
        </mxCell>
        <mxCell id="86" value="11" style="strokeColor=none;fillColor=none;fontColor=#999999;fontSize=10;fontFamily=Helvetica;" parent="34" vertex="1">
          <mxGeometry x="186.875" y="191.97714285714287" width="28.75" height="25.942857142857143" as="geometry" />
        </mxCell>
        <mxCell id="101" value="Stock Analysis" style="text;fontColor=#808080;fontSize=16;verticalAlign=middle;strokeColor=none;fillColor=none;fontFamily=Helvetica;" parent="2" vertex="1">
          <mxGeometry x="11" y="580" width="220" height="30" as="geometry" />
        </mxCell>
        <mxCell id="102" value="" style="dashed=0;shape=line;strokeWidth=1;noLabel=1;strokeColor=#999999;opacity=80;fontFamily=Helvetica;fontSize=10;fillColor=#E6E6E6;" parent="2" vertex="1">
          <mxGeometry x="11" y="605" width="220" height="10" as="geometry" />
        </mxCell>
        <mxCell id="103" value="" style="strokeWidth=1;shadow=0;dashed=0;align=center;html=1;shape=mxgraph.mockup.rrect;rSize=10;fillColor=#F1F2F4;strokeColor=#ffffff;strokeWidth=2;fontFamily=Roboto;fontSize=10;fontColor=#FF3333;fontStyle=1" parent="2" vertex="1">
          <mxGeometry x="6" y="490" width="230" height="33" as="geometry" />
        </mxCell>
        <mxCell id="104" value="Start" style="strokeWidth=1;shadow=0;dashed=0;align=center;html=1;shape=mxgraph.mockup.leftButton;rSize=10;fontSize=12;fontColor=#9515E0;fontStyle=1;fillColor=none;strokeColor=#ffffff;strokeWidth=2;resizeHeight=1;fontFamily=Roboto;" parent="103" vertex="1">
          <mxGeometry width="70" height="33" relative="1" as="geometry" />
        </mxCell>
        <mxCell id="105" value="Stop" style="rounded=0;fontSize=12;fontColor=#FF3333;fontStyle=1;fillColor=none;strokeColor=#ffffff;strokeWidth=2;resizeHeight=1;fontFamily=Roboto;" parent="103" vertex="1">
          <mxGeometry width="80" height="33" relative="1" as="geometry">
            <mxPoint x="70" as="offset" />
          </mxGeometry>
        </mxCell>
        <mxCell id="106" value="Clear" style="strokeWidth=1;shadow=0;dashed=0;align=center;html=1;shape=mxgraph.mockup.rightButton;rSize=10;fontSize=12;fontColor=#596780;fontStyle=0;fillColor=none;strokeColor=#ffffff;strokeWidth=2;resizeHeight=1;fontFamily=Roboto;" parent="103" vertex="1">
          <mxGeometry x="1" width="80" height="33" relative="1" as="geometry">
            <mxPoint x="-80" as="offset" />
          </mxGeometry>
        </mxCell>
        <mxCell id="107" value="" style="strokeWidth=1;shadow=0;dashed=0;align=center;html=1;shape=mxgraph.mockup.rrect;rSize=10;fillColor=#F1F2F4;strokeColor=#ffffff;strokeWidth=2;fontFamily=Helvetica;fontSize=10;" parent="2" vertex="1">
          <mxGeometry x="6" y="540" width="160" height="33" as="geometry" />
        </mxCell>
        <mxCell id="108" value="Fetch List" style="strokeWidth=1;shadow=0;dashed=0;align=center;html=1;shape=mxgraph.mockup.leftButton;rSize=10;fontSize=10;fontColor=#596780;fontStyle=0;fillColor=none;strokeColor=#ffffff;strokeWidth=2;resizeHeight=1;fontFamily=Roboto;" parent="107" vertex="1">
          <mxGeometry width="80" height="33" relative="1" as="geometry" />
        </mxCell>
        <mxCell id="109" value="Clear List" style="strokeWidth=1;shadow=0;dashed=0;align=center;html=1;shape=mxgraph.mockup.rightButton;rSize=10;fontSize=10;fontColor=#596780;fontStyle=0;fillColor=none;strokeColor=#ffffff;strokeWidth=2;resizeHeight=1;fontFamily=Roboto;" parent="107" vertex="1">
          <mxGeometry x="1" width="80" height="33" relative="1" as="geometry">
            <mxPoint x="-79" as="offset" />
          </mxGeometry>
        </mxCell>
        <mxCell id="123" value="Start From" style="fillColor=none;strokeColor=none;html=1;fontSize=11;fontStyle=0;align=left;fontColor=#596780;fontStyle=1;fontSize=11;fontFamily=Helvetica;" parent="2" vertex="1">
          <mxGeometry x="171" y="178" width="70" height="20" as="geometry" />
        </mxCell>
        <mxCell id="124" value="1" style="rounded=1;arcSize=9;fillColor=#F7F8F9;align=left;spacingLeft=5;strokeColor=#DEE1E6;html=1;strokeWidth=2;fontColor=#596780;fontSize=12;fontFamily=Helvetica;" parent="2" vertex="1">
          <mxGeometry x="171" y="203" width="59" height="33" as="geometry" />
        </mxCell>
        <mxCell id="125" value="" style="triangle;whiteSpace=wrap;html=1;fontFamily=Helvetica;fontSize=10;fillColor=#253858;direction=south;aspect=fixed;" parent="2" vertex="1">
          <mxGeometry x="215" y="221" width="7.7" height="7" as="geometry" />
        </mxCell>
        <mxCell id="126" value="" style="triangle;whiteSpace=wrap;html=1;fontFamily=Helvetica;fontSize=10;fillColor=#253858;direction=north;aspect=fixed;" parent="2" vertex="1">
          <mxGeometry x="215" y="211" width="7.7" height="7" as="geometry" />
        </mxCell>
        <mxCell id="128" value="" style="html=1;shadow=0;dashed=0;shape=mxgraph.bootstrap.rrect;rSize=5;strokeColor=#DFDFDF;html=1;whiteSpace=wrap;fillColor=#FFFFFF;fontColor=#000000;fontFamily=Helvetica;fontSize=10;" parent="2" vertex="1">
          <mxGeometry x="6" y="620" width="224" height="150" as="geometry" />
        </mxCell>
        <mxCell id="129" value="Scripts Analysed" style="strokeColor=inherit;fillColor=inherit;gradientColor=inherit;fontColor=inherit;html=1;shadow=0;dashed=0;shape=mxgraph.bootstrap.topButton;rSize=5;perimeter=none;whiteSpace=wrap;resizeWidth=1;align=left;spacing=10;fontFamily=Roboto;fontSize=10;" parent="128" vertex="1">
          <mxGeometry width="224.00000000000003" height="30" relative="1" as="geometry" />
        </mxCell>
        <mxCell id="130" value="Start Time" style="strokeColor=inherit;fillColor=inherit;gradientColor=inherit;fontColor=inherit;html=1;shadow=0;dashed=0;perimeter=none;whiteSpace=wrap;resizeWidth=1;align=left;spacing=10;fontFamily=Roboto;fontSize=10;" parent="128" vertex="1">
          <mxGeometry width="224.00000000000003" height="30" relative="1" as="geometry">
            <mxPoint y="30" as="offset" />
          </mxGeometry>
        </mxCell>
        <mxCell id="131" value="Running Time" style="strokeColor=inherit;fillColor=inherit;gradientColor=inherit;fontColor=inherit;html=1;shadow=0;dashed=0;perimeter=none;whiteSpace=wrap;resizeWidth=1;align=left;spacing=10;fontFamily=Roboto;fontSize=10;" parent="128" vertex="1">
          <mxGeometry width="224.00000000000003" height="30" relative="1" as="geometry">
            <mxPoint y="60" as="offset" />
          </mxGeometry>
        </mxCell>
        <mxCell id="132" value="Script fetched on" style="strokeColor=inherit;fillColor=inherit;gradientColor=inherit;fontColor=inherit;html=1;shadow=0;dashed=0;perimeter=none;whiteSpace=wrap;resizeWidth=1;align=left;spacing=10;fontFamily=Roboto;fontSize=10;" parent="128" vertex="1">
          <mxGeometry width="224.00000000000003" height="30" relative="1" as="geometry">
            <mxPoint y="90" as="offset" />
          </mxGeometry>
        </mxCell>
        <mxCell id="133" value="Pivot Gap %" style="strokeColor=inherit;fillColor=inherit;gradientColor=inherit;fontColor=inherit;html=1;shadow=0;dashed=0;shape=mxgraph.bootstrap.bottomButton;rSize=5;perimeter=none;whiteSpace=wrap;resizeWidth=1;resizeHeight=0;align=left;spacing=10;fontFamily=Roboto;fontSize=10;" parent="128" vertex="1">
          <mxGeometry y="1" width="224.00000000000003" height="30" relative="1" as="geometry">
            <mxPoint y="-30" as="offset" />
          </mxGeometry>
        </mxCell>
        <UserObject label="%date{HH:MM:ss}%" placeholders="1" id="134">
          <mxCell style="text;html=1;strokeColor=none;fillColor=none;align=center;verticalAlign=middle;whiteSpace=wrap;overflow=hidden;fontFamily=Roboto;fontSize=9;fontColor=#6666FF;" parent="128" vertex="1">
            <mxGeometry x="164" y="65" width="60" height="20" as="geometry" />
          </mxCell>
        </UserObject>
        <UserObject label="%date{ddd mmm dd yyyy HH:MM:ss}%" placeholders="1" id="135">
          <mxCell style="text;html=1;strokeColor=none;fillColor=none;align=center;verticalAlign=middle;whiteSpace=wrap;overflow=hidden;fontFamily=Roboto;fontSize=9;fontColor=#6666FF;" parent="128" vertex="1">
            <mxGeometry x="96" y="35" width="126" height="20" as="geometry" />
          </mxCell>
        </UserObject>
        <UserObject label="%date{ddd mmm dd yyyy HH:MM:ss}%" placeholders="1" id="136">
          <mxCell style="text;html=1;strokeColor=none;fillColor=none;align=center;verticalAlign=middle;whiteSpace=wrap;overflow=hidden;fontFamily=Roboto;fontSize=9;fontColor=#6666FF;" parent="128" vertex="1">
            <mxGeometry x="95" y="96" width="126" height="20" as="geometry" />
          </mxCell>
        </UserObject>
        <mxCell id="137" value="6" style="text;html=1;strokeColor=none;fillColor=none;align=center;verticalAlign=middle;whiteSpace=wrap;rounded=0;fontFamily=Roboto;fontSize=9;fontColor=#6666FF;" parent="128" vertex="1">
          <mxGeometry x="191" width="30" height="30" as="geometry" />
        </mxCell>
        <mxCell id="138" value="0" style="text;html=1;strokeColor=none;fillColor=none;align=center;verticalAlign=middle;whiteSpace=wrap;rounded=0;fontFamily=Roboto;fontSize=9;fontColor=#6666FF;" parent="128" vertex="1">
          <mxGeometry x="191" y="120" width="30" height="30" as="geometry" />
        </mxCell>
        <mxCell id="200" value="" style="shape=table;html=1;whiteSpace=wrap;startSize=0;container=1;collapsible=0;childLayout=tableLayout;fontFamily=Roboto;fontSize=9;fontColor=#000000;fillColor=#FFFFFF;rounded=0;arcSize=50;strokeColor=#a9a7a7;" parent="2" vertex="1">
          <mxGeometry x="250" y="200" width="1170" height="230" as="geometry" />
        </mxCell>
        <mxCell id="256" style="shape=tableRow;horizontal=0;startSize=0;swimlaneHead=0;swimlaneBody=0;top=0;left=0;bottom=0;right=0;collapsible=0;dropTarget=0;fillColor=none;points=[[0,0.5],[1,0.5]];portConstraint=eastwest;fontFamily=Roboto;fontSize=9;fontColor=#6666FF;" parent="200" vertex="1">
          <mxGeometry width="1170" height="17" as="geometry" />
        </mxCell>
        <mxCell id="257" value="BREAKOUT FILTER" style="shape=partialRectangle;html=1;whiteSpace=wrap;connectable=0;fillColor=none;top=0;left=0;bottom=0;right=0;overflow=hidden;fontFamily=Roboto;fontSize=9;fontColor=#000000;fontStyle=1;rowspan=1;colspan=6;" parent="256" vertex="1">
          <mxGeometry width="390" height="17" as="geometry">
            <mxRectangle width="60" height="17" as="alternateBounds" />
          </mxGeometry>
        </mxCell>
        <mxCell id="258" style="shape=partialRectangle;html=1;whiteSpace=wrap;connectable=0;fillColor=none;top=0;left=0;bottom=0;right=0;overflow=hidden;fontFamily=Roboto;fontSize=9;fontColor=#000000;fontStyle=1" parent="256" vertex="1" visible="0">
          <mxGeometry x="60" width="30" height="17" as="geometry">
            <mxRectangle width="30" height="17" as="alternateBounds" />
          </mxGeometry>
        </mxCell>
        <mxCell id="259" style="shape=partialRectangle;html=1;whiteSpace=wrap;connectable=0;fillColor=none;top=0;left=0;bottom=0;right=0;overflow=hidden;fontFamily=Roboto;fontSize=9;fontColor=#000000;fontStyle=1" parent="256" vertex="1" visible="0">
          <mxGeometry x="90" width="90" height="17" as="geometry">
            <mxRectangle width="90" height="17" as="alternateBounds" />
          </mxGeometry>
        </mxCell>
        <mxCell id="445" style="shape=partialRectangle;html=1;whiteSpace=wrap;connectable=0;fillColor=none;top=0;left=0;bottom=0;right=0;overflow=hidden;fontFamily=Roboto;fontSize=9;fontColor=#000000;fontStyle=1" parent="256" vertex="1" visible="0">
          <mxGeometry x="180" width="70" height="17" as="geometry">
            <mxRectangle width="70" height="17" as="alternateBounds" />
          </mxGeometry>
        </mxCell>
        <mxCell id="260" style="shape=partialRectangle;html=1;whiteSpace=wrap;connectable=0;fillColor=none;top=0;left=0;bottom=0;right=0;overflow=hidden;fontFamily=Roboto;fontSize=9;fontColor=#000000;fontStyle=1" parent="256" vertex="1" visible="0">
          <mxGeometry x="250" width="80" height="17" as="geometry">
            <mxRectangle width="80" height="17" as="alternateBounds" />
          </mxGeometry>
        </mxCell>
        <mxCell id="261" style="shape=partialRectangle;html=1;whiteSpace=wrap;connectable=0;fillColor=none;top=0;left=0;bottom=0;right=0;overflow=hidden;fontFamily=Roboto;fontSize=9;fontColor=#000000;fontStyle=1" parent="256" vertex="1" visible="0">
          <mxGeometry x="330" width="60" height="17" as="geometry">
            <mxRectangle width="60" height="17" as="alternateBounds" />
          </mxGeometry>
        </mxCell>
        <mxCell id="262" value="PRESENT DAY VALUES" style="shape=partialRectangle;html=1;whiteSpace=wrap;connectable=0;fillColor=none;top=0;left=0;bottom=0;right=0;overflow=hidden;fontFamily=Roboto;fontSize=9;fontColor=#000000;fontStyle=1;rowspan=1;colspan=6;" parent="256" vertex="1">
          <mxGeometry x="390" width="360" height="17" as="geometry">
            <mxRectangle width="60" height="17" as="alternateBounds" />
          </mxGeometry>
        </mxCell>
        <mxCell id="263" style="shape=partialRectangle;html=1;whiteSpace=wrap;connectable=0;fillColor=none;top=0;left=0;bottom=0;right=0;overflow=hidden;fontFamily=Roboto;fontSize=9;fontColor=#000000;fontStyle=1" parent="256" vertex="1" visible="0">
          <mxGeometry x="450" width="60" height="17" as="geometry">
            <mxRectangle width="60" height="17" as="alternateBounds" />
          </mxGeometry>
        </mxCell>
        <mxCell id="264" style="shape=partialRectangle;html=1;whiteSpace=wrap;connectable=0;fillColor=none;top=0;left=0;bottom=0;right=0;overflow=hidden;fontFamily=Roboto;fontSize=9;fontColor=#000000;fontStyle=1" parent="256" vertex="1" visible="0">
          <mxGeometry x="510" width="60" height="17" as="geometry">
            <mxRectangle width="60" height="17" as="alternateBounds" />
          </mxGeometry>
        </mxCell>
        <mxCell id="265" style="shape=partialRectangle;html=1;whiteSpace=wrap;connectable=0;fillColor=none;top=0;left=0;bottom=0;right=0;overflow=hidden;fontFamily=Roboto;fontSize=9;fontColor=#000000;fontStyle=1" parent="256" vertex="1" visible="0">
          <mxGeometry x="570" width="60" height="17" as="geometry">
            <mxRectangle width="60" height="17" as="alternateBounds" />
          </mxGeometry>
        </mxCell>
        <mxCell id="346" style="shape=partialRectangle;html=1;whiteSpace=wrap;connectable=0;fillColor=none;top=0;left=0;bottom=0;right=0;overflow=hidden;fontFamily=Roboto;fontSize=9;fontColor=#000000;fontStyle=1" parent="256" vertex="1" visible="0">
          <mxGeometry x="630" width="59" height="17" as="geometry">
            <mxRectangle width="59" height="17" as="alternateBounds" />
          </mxGeometry>
        </mxCell>
        <mxCell id="266" style="shape=partialRectangle;html=1;whiteSpace=wrap;connectable=0;fillColor=none;top=0;left=0;bottom=0;right=0;overflow=hidden;fontFamily=Roboto;fontSize=9;fontColor=#000000;fontStyle=1" parent="256" vertex="1" visible="0">
          <mxGeometry x="689" width="61" height="17" as="geometry">
            <mxRectangle width="61" height="17" as="alternateBounds" />
          </mxGeometry>
        </mxCell>
        <mxCell id="267" value="PIVOT POINTS" style="shape=partialRectangle;html=1;whiteSpace=wrap;connectable=0;fillColor=none;top=0;left=0;bottom=0;right=0;overflow=hidden;fontFamily=Roboto;fontSize=9;fontColor=#000000;fontStyle=1;rowspan=1;colspan=6;" parent="256" vertex="1">
          <mxGeometry x="750" width="360" height="17" as="geometry">
            <mxRectangle width="59" height="17" as="alternateBounds" />
          </mxGeometry>
        </mxCell>
        <mxCell id="268" style="shape=partialRectangle;html=1;whiteSpace=wrap;connectable=0;fillColor=none;top=0;left=0;bottom=0;right=0;overflow=hidden;fontFamily=Roboto;fontSize=9;fontColor=#000000;fontStyle=1" parent="256" vertex="1" visible="0">
          <mxGeometry x="809" width="61" height="17" as="geometry">
            <mxRectangle width="61" height="17" as="alternateBounds" />
          </mxGeometry>
        </mxCell>
        <mxCell id="269" style="shape=partialRectangle;html=1;whiteSpace=wrap;connectable=0;fillColor=none;top=0;left=0;bottom=0;right=0;overflow=hidden;fontFamily=Roboto;fontSize=9;fontColor=#000000;fontStyle=1" parent="256" vertex="1" visible="0">
          <mxGeometry x="870" width="59" height="17" as="geometry">
            <mxRectangle width="59" height="17" as="alternateBounds" />
          </mxGeometry>
        </mxCell>
        <mxCell id="270" style="shape=partialRectangle;html=1;whiteSpace=wrap;connectable=0;fillColor=none;top=0;left=0;bottom=0;right=0;overflow=hidden;fontFamily=Roboto;fontSize=9;fontColor=#000000;fontStyle=1" parent="256" vertex="1" visible="0">
          <mxGeometry x="929" width="61" height="17" as="geometry">
            <mxRectangle width="61" height="17" as="alternateBounds" />
          </mxGeometry>
        </mxCell>
        <mxCell id="271" style="shape=partialRectangle;html=1;whiteSpace=wrap;connectable=0;fillColor=none;top=0;left=0;bottom=0;right=0;overflow=hidden;fontFamily=Roboto;fontSize=9;fontColor=#000000;fontStyle=1" parent="256" vertex="1" visible="0">
          <mxGeometry x="990" width="59" height="17" as="geometry">
            <mxRectangle width="59" height="17" as="alternateBounds" />
          </mxGeometry>
        </mxCell>
        <mxCell id="272" style="shape=partialRectangle;html=1;whiteSpace=wrap;connectable=0;fillColor=none;top=0;left=0;bottom=0;right=0;overflow=hidden;fontFamily=Roboto;fontSize=9;fontColor=#000000;fontStyle=1" parent="256" vertex="1" visible="0">
          <mxGeometry x="1049" width="61" height="17" as="geometry">
            <mxRectangle width="61" height="17" as="alternateBounds" />
          </mxGeometry>
        </mxCell>
        <mxCell id="273" style="shape=partialRectangle;html=1;whiteSpace=wrap;connectable=0;fillColor=none;top=0;left=0;bottom=0;right=0;overflow=hidden;fontFamily=Roboto;fontSize=9;fontColor=#000000;fontStyle=1" parent="256" vertex="1">
          <mxGeometry x="1110" width="60" height="17" as="geometry">
            <mxRectangle width="60" height="17" as="alternateBounds" />
          </mxGeometry>
        </mxCell>
        <mxCell id="201" value="" style="shape=tableRow;horizontal=0;startSize=0;swimlaneHead=0;swimlaneBody=0;top=0;left=0;bottom=0;right=0;collapsible=0;dropTarget=0;fillColor=none;points=[[0,0.5],[1,0.5]];portConstraint=eastwest;fontFamily=Roboto;fontSize=9;fontColor=#6666FF;" parent="200" vertex="1">
          <mxGeometry y="17" width="1170" height="17" as="geometry" />
        </mxCell>
        <mxCell id="202" value="Group" style="shape=partialRectangle;html=1;whiteSpace=wrap;connectable=0;fillColor=none;top=0;left=0;bottom=0;right=0;overflow=hidden;fontFamily=Roboto;fontSize=9;fontColor=#000000;fontStyle=1" parent="201" vertex="1">
          <mxGeometry width="60" height="17" as="geometry">
            <mxRectangle width="60" height="17" as="alternateBounds" />
          </mxGeometry>
        </mxCell>
        <mxCell id="203" value="SI" style="shape=partialRectangle;html=1;whiteSpace=wrap;connectable=0;fillColor=none;top=0;left=0;bottom=0;right=0;overflow=hidden;fontFamily=Roboto;fontSize=9;fontColor=#000000;fontStyle=1" parent="201" vertex="1">
          <mxGeometry x="60" width="30" height="17" as="geometry">
            <mxRectangle width="30" height="17" as="alternateBounds" />
          </mxGeometry>
        </mxCell>
        <mxCell id="204" value="Scripts" style="shape=partialRectangle;html=1;whiteSpace=wrap;connectable=0;fillColor=none;top=0;left=0;bottom=0;right=0;overflow=hidden;fontFamily=Roboto;fontSize=9;fontColor=#000000;fontStyle=1" parent="201" vertex="1">
          <mxGeometry x="90" width="90" height="17" as="geometry">
            <mxRectangle width="90" height="17" as="alternateBounds" />
          </mxGeometry>
        </mxCell>
        <mxCell id="446" value="Breakout" style="shape=partialRectangle;html=1;whiteSpace=wrap;connectable=0;fillColor=none;top=0;left=0;bottom=0;right=0;overflow=hidden;fontFamily=Roboto;fontSize=9;fontColor=#000000;fontStyle=1" parent="201" vertex="1">
          <mxGeometry x="180" width="70" height="17" as="geometry">
            <mxRectangle width="70" height="17" as="alternateBounds" />
          </mxGeometry>
        </mxCell>
        <mxCell id="213" value="Candle" style="shape=partialRectangle;html=1;whiteSpace=wrap;connectable=0;fillColor=none;top=0;left=0;bottom=0;right=0;overflow=hidden;fontFamily=Roboto;fontSize=9;fontColor=#000000;fontStyle=1" parent="201" vertex="1">
          <mxGeometry x="250" width="80" height="17" as="geometry">
            <mxRectangle width="80" height="17" as="alternateBounds" />
          </mxGeometry>
        </mxCell>
        <mxCell id="216" value="Volume Indicator" style="shape=partialRectangle;html=1;whiteSpace=wrap;connectable=0;fillColor=none;top=0;left=0;bottom=0;right=0;overflow=hidden;fontFamily=Roboto;fontSize=9;fontColor=#000000;fontStyle=1" parent="201" vertex="1">
          <mxGeometry x="330" width="60" height="17" as="geometry">
            <mxRectangle width="60" height="17" as="alternateBounds" />
          </mxGeometry>
        </mxCell>
        <mxCell id="219" value="Open" style="shape=partialRectangle;html=1;whiteSpace=wrap;connectable=0;fillColor=none;top=0;left=0;bottom=0;right=0;overflow=hidden;fontFamily=Roboto;fontSize=9;fontColor=#000000;fontStyle=1" parent="201" vertex="1">
          <mxGeometry x="390" width="60" height="17" as="geometry">
            <mxRectangle width="60" height="17" as="alternateBounds" />
          </mxGeometry>
        </mxCell>
        <mxCell id="222" value="High" style="shape=partialRectangle;html=1;whiteSpace=wrap;connectable=0;fillColor=none;top=0;left=0;bottom=0;right=0;overflow=hidden;fontFamily=Roboto;fontSize=9;fontColor=#000000;fontStyle=1" parent="201" vertex="1">
          <mxGeometry x="450" width="60" height="17" as="geometry">
            <mxRectangle width="60" height="17" as="alternateBounds" />
          </mxGeometry>
        </mxCell>
        <mxCell id="225" value="Low" style="shape=partialRectangle;html=1;whiteSpace=wrap;connectable=0;fillColor=none;top=0;left=0;bottom=0;right=0;overflow=hidden;fontFamily=Roboto;fontSize=9;fontColor=#000000;fontStyle=1" parent="201" vertex="1">
          <mxGeometry x="510" width="60" height="17" as="geometry">
            <mxRectangle width="60" height="17" as="alternateBounds" />
          </mxGeometry>
        </mxCell>
        <mxCell id="228" value="Close" style="shape=partialRectangle;html=1;whiteSpace=wrap;connectable=0;fillColor=none;top=0;left=0;bottom=0;right=0;overflow=hidden;fontFamily=Roboto;fontSize=9;fontColor=#000000;fontStyle=1" parent="201" vertex="1">
          <mxGeometry x="570" width="60" height="17" as="geometry">
            <mxRectangle width="60" height="17" as="alternateBounds" />
          </mxGeometry>
        </mxCell>
        <mxCell id="347" value="Previous Day High" style="shape=partialRectangle;html=1;whiteSpace=wrap;connectable=0;fillColor=none;top=0;left=0;bottom=0;right=0;overflow=hidden;fontFamily=Roboto;fontSize=9;fontColor=#000000;fontStyle=1" parent="201" vertex="1">
          <mxGeometry x="630" width="59" height="17" as="geometry">
            <mxRectangle width="59" height="17" as="alternateBounds" />
          </mxGeometry>
        </mxCell>
        <mxCell id="231" value="Volume" style="shape=partialRectangle;html=1;whiteSpace=wrap;connectable=0;fillColor=none;top=0;left=0;bottom=0;right=0;overflow=hidden;fontFamily=Roboto;fontSize=9;fontColor=#000000;fontStyle=1" parent="201" vertex="1">
          <mxGeometry x="689" width="61" height="17" as="geometry">
            <mxRectangle width="61" height="17" as="alternateBounds" />
          </mxGeometry>
        </mxCell>
        <mxCell id="234" value="CPR" style="shape=partialRectangle;html=1;whiteSpace=wrap;connectable=0;fillColor=none;top=0;left=0;bottom=0;right=0;overflow=hidden;fontFamily=Roboto;fontSize=9;fontColor=#000000;fontStyle=1" parent="201" vertex="1">
          <mxGeometry x="750" width="59" height="17" as="geometry">
            <mxRectangle width="59" height="17" as="alternateBounds" />
          </mxGeometry>
        </mxCell>
        <mxCell id="237" value="RES-1" style="shape=partialRectangle;html=1;whiteSpace=wrap;connectable=0;fillColor=none;top=0;left=0;bottom=0;right=0;overflow=hidden;fontFamily=Roboto;fontSize=9;fontColor=#000000;fontStyle=1" parent="201" vertex="1">
          <mxGeometry x="809" width="61" height="17" as="geometry">
            <mxRectangle width="61" height="17" as="alternateBounds" />
          </mxGeometry>
        </mxCell>
        <mxCell id="240" value="RES-2" style="shape=partialRectangle;html=1;whiteSpace=wrap;connectable=0;fillColor=none;top=0;left=0;bottom=0;right=0;overflow=hidden;fontFamily=Roboto;fontSize=9;fontColor=#000000;fontStyle=1" parent="201" vertex="1">
          <mxGeometry x="870" width="59" height="17" as="geometry">
            <mxRectangle width="59" height="17" as="alternateBounds" />
          </mxGeometry>
        </mxCell>
        <mxCell id="243" value="SUPP-1" style="shape=partialRectangle;html=1;whiteSpace=wrap;connectable=0;fillColor=none;top=0;left=0;bottom=0;right=0;overflow=hidden;fontFamily=Roboto;fontSize=9;fontColor=#000000;fontStyle=1" parent="201" vertex="1">
          <mxGeometry x="929" width="61" height="17" as="geometry">
            <mxRectangle width="61" height="17" as="alternateBounds" />
          </mxGeometry>
        </mxCell>
        <mxCell id="252" value="SUPP-2" style="shape=partialRectangle;html=1;whiteSpace=wrap;connectable=0;fillColor=none;top=0;left=0;bottom=0;right=0;overflow=hidden;fontFamily=Roboto;fontSize=9;fontColor=#000000;fontStyle=1" parent="201" vertex="1">
          <mxGeometry x="990" width="59" height="17" as="geometry">
            <mxRectangle width="59" height="17" as="alternateBounds" />
          </mxGeometry>
        </mxCell>
        <mxCell id="249" value="Narrow Gap" style="shape=partialRectangle;html=1;whiteSpace=wrap;connectable=0;fillColor=none;top=0;left=0;bottom=0;right=0;overflow=hidden;fontFamily=Roboto;fontSize=9;fontColor=#000000;fontStyle=1" parent="201" vertex="1">
          <mxGeometry x="1049" width="61" height="17" as="geometry">
            <mxRectangle width="61" height="17" as="alternateBounds" />
          </mxGeometry>
        </mxCell>
        <mxCell id="246" value="Chart Link" style="shape=partialRectangle;html=1;whiteSpace=wrap;connectable=0;fillColor=none;top=0;left=0;bottom=0;right=0;overflow=hidden;fontFamily=Roboto;fontSize=9;fontColor=#000000;fontStyle=1" parent="201" vertex="1">
          <mxGeometry x="1110" width="60" height="17" as="geometry">
            <mxRectangle width="60" height="17" as="alternateBounds" />
          </mxGeometry>
        </mxCell>
        <mxCell id="205" value="" style="shape=tableRow;horizontal=0;startSize=0;swimlaneHead=0;swimlaneBody=0;top=0;left=0;bottom=0;right=0;collapsible=0;dropTarget=0;fillColor=none;points=[[0,0.5],[1,0.5]];portConstraint=eastwest;fontFamily=Roboto;fontSize=9;fontColor=#6666FF;" parent="200" vertex="1">
          <mxGeometry y="34" width="1170" height="20" as="geometry" />
        </mxCell>
        <mxCell id="206" value="NIFTY 50" style="shape=partialRectangle;html=1;whiteSpace=wrap;connectable=0;fillColor=none;top=0;left=0;bottom=0;right=0;overflow=hidden;fontFamily=Roboto;fontSize=9;fontColor=#000000;" parent="205" vertex="1">
          <mxGeometry width="60" height="20" as="geometry">
            <mxRectangle width="60" height="20" as="alternateBounds" />
          </mxGeometry>
        </mxCell>
        <mxCell id="207" value="1" style="shape=partialRectangle;html=1;whiteSpace=wrap;connectable=0;fillColor=none;top=0;left=0;bottom=0;right=0;overflow=hidden;fontFamily=Roboto;fontSize=9;fontColor=#000000;" parent="205" vertex="1">
          <mxGeometry x="60" width="30" height="20" as="geometry">
            <mxRectangle width="30" height="20" as="alternateBounds" />
          </mxGeometry>
        </mxCell>
        <mxCell id="208" value="ADANIENT" style="shape=partialRectangle;html=1;whiteSpace=wrap;connectable=0;fillColor=none;top=0;left=0;bottom=0;right=0;overflow=hidden;fontFamily=Roboto;fontSize=9;fontColor=#000000;" parent="205" vertex="1">
          <mxGeometry x="90" width="90" height="20" as="geometry">
            <mxRectangle width="90" height="20" as="alternateBounds" />
          </mxGeometry>
        </mxCell>
        <mxCell id="447" value="Red candle" style="shape=partialRectangle;html=1;whiteSpace=wrap;connectable=0;fillColor=#fa6800;top=0;left=0;bottom=0;right=0;overflow=hidden;fontFamily=Roboto;fontSize=9;fontColor=#FFFFFF;strokeColor=#C73500;" parent="205" vertex="1">
          <mxGeometry x="180" width="70" height="20" as="geometry">
            <mxRectangle width="70" height="20" as="alternateBounds" />
          </mxGeometry>
        </mxCell>
        <mxCell id="214" value="RED" style="shape=partialRectangle;html=1;whiteSpace=wrap;connectable=0;fillColor=#fa6800;top=0;left=0;bottom=0;right=0;overflow=hidden;fontFamily=Roboto;fontSize=9;fontColor=#f5f4f4;strokeColor=#C73500;" parent="205" vertex="1">
          <mxGeometry x="250" width="80" height="20" as="geometry">
            <mxRectangle width="80" height="20" as="alternateBounds" />
          </mxGeometry>
        </mxCell>
        <mxCell id="217" value="LOW" style="shape=partialRectangle;html=1;whiteSpace=wrap;connectable=0;fillColor=#fa6800;top=0;left=0;bottom=0;right=0;overflow=hidden;fontFamily=Roboto;fontSize=9;fontColor=#FFFFFF;strokeColor=#C73500;" parent="205" vertex="1">
          <mxGeometry x="330" width="60" height="20" as="geometry">
            <mxRectangle width="60" height="20" as="alternateBounds" />
          </mxGeometry>
        </mxCell>
        <mxCell id="220" value="3071.95" style="shape=partialRectangle;html=1;whiteSpace=wrap;connectable=0;fillColor=none;top=0;left=0;bottom=0;right=0;overflow=hidden;fontFamily=Roboto;fontSize=9;fontColor=#000000;" parent="205" vertex="1">
          <mxGeometry x="390" width="60" height="20" as="geometry">
            <mxRectangle width="60" height="20" as="alternateBounds" />
          </mxGeometry>
        </mxCell>
        <mxCell id="223" value="3087.95" style="shape=partialRectangle;html=1;whiteSpace=wrap;connectable=0;fillColor=none;top=0;left=0;bottom=0;right=0;overflow=hidden;fontFamily=Roboto;fontSize=9;fontColor=#000000;" parent="205" vertex="1">
          <mxGeometry x="450" width="60" height="20" as="geometry">
            <mxRectangle width="60" height="20" as="alternateBounds" />
          </mxGeometry>
        </mxCell>
        <mxCell id="226" value="3040" style="shape=partialRectangle;html=1;whiteSpace=wrap;connectable=0;fillColor=none;top=0;left=0;bottom=0;right=0;overflow=hidden;fontFamily=Roboto;fontSize=9;fontColor=#000000;" parent="205" vertex="1">
          <mxGeometry x="510" width="60" height="20" as="geometry">
            <mxRectangle width="60" height="20" as="alternateBounds" />
          </mxGeometry>
        </mxCell>
        <mxCell id="229" value="3043.55" style="shape=partialRectangle;html=1;whiteSpace=wrap;connectable=0;fillColor=none;top=0;left=0;bottom=0;right=0;overflow=hidden;fontFamily=Roboto;fontSize=9;fontColor=#000000;" parent="205" vertex="1">
          <mxGeometry x="570" width="60" height="20" as="geometry">
            <mxRectangle width="60" height="20" as="alternateBounds" />
          </mxGeometry>
        </mxCell>
        <mxCell id="348" value="3254.6" style="shape=partialRectangle;html=1;whiteSpace=wrap;connectable=0;fillColor=none;top=0;left=0;bottom=0;right=0;overflow=hidden;fontFamily=Roboto;fontSize=9;fontColor=#000000;" parent="205" vertex="1">
          <mxGeometry x="630" width="59" height="20" as="geometry">
            <mxRectangle width="59" height="20" as="alternateBounds" />
          </mxGeometry>
        </mxCell>
        <mxCell id="232" value="0" style="shape=partialRectangle;html=1;whiteSpace=wrap;connectable=0;fillColor=none;top=0;left=0;bottom=0;right=0;overflow=hidden;fontFamily=Roboto;fontSize=9;fontColor=#000000;" parent="205" vertex="1">
          <mxGeometry x="689" width="61" height="20" as="geometry">
            <mxRectangle width="61" height="20" as="alternateBounds" />
          </mxGeometry>
        </mxCell>
        <mxCell id="235" value="3057.13" style="shape=partialRectangle;html=1;whiteSpace=wrap;connectable=0;fillColor=none;top=0;left=0;bottom=0;right=0;overflow=hidden;fontFamily=Roboto;fontSize=9;fontColor=#000000;" parent="205" vertex="1">
          <mxGeometry x="750" width="59" height="20" as="geometry">
            <mxRectangle width="59" height="20" as="alternateBounds" />
          </mxGeometry>
        </mxCell>
        <mxCell id="238" value="3074.54" style="shape=partialRectangle;html=1;whiteSpace=wrap;connectable=0;fillColor=none;top=0;left=0;bottom=0;right=0;overflow=hidden;fontFamily=Roboto;fontSize=9;fontColor=#000000;" parent="205" vertex="1">
          <mxGeometry x="809" width="61" height="20" as="geometry">
            <mxRectangle width="61" height="20" as="alternateBounds" />
          </mxGeometry>
        </mxCell>
        <mxCell id="241" value="3104.25" style="shape=partialRectangle;html=1;whiteSpace=wrap;connectable=0;fillColor=none;top=0;left=0;bottom=0;right=0;overflow=hidden;fontFamily=Roboto;fontSize=9;fontColor=#000000;" parent="205" vertex="1">
          <mxGeometry x="870" width="59" height="20" as="geometry">
            <mxRectangle width="59" height="20" as="alternateBounds" />
          </mxGeometry>
        </mxCell>
        <mxCell id="244" value="3026.58" style="shape=partialRectangle;html=1;whiteSpace=wrap;connectable=0;fillColor=none;top=0;left=0;bottom=0;right=0;overflow=hidden;fontFamily=Roboto;fontSize=9;fontColor=#000000;" parent="205" vertex="1">
          <mxGeometry x="929" width="61" height="20" as="geometry">
            <mxRectangle width="61" height="20" as="alternateBounds" />
          </mxGeometry>
        </mxCell>
        <mxCell id="253" value="3009.69" style="shape=partialRectangle;html=1;whiteSpace=wrap;connectable=0;fillColor=none;top=0;left=0;bottom=0;right=0;overflow=hidden;fontFamily=Roboto;fontSize=9;fontColor=#000000;" parent="205" vertex="1">
          <mxGeometry x="990" width="59" height="20" as="geometry">
            <mxRectangle width="59" height="20" as="alternateBounds" />
          </mxGeometry>
        </mxCell>
        <mxCell id="250" value="No" style="shape=partialRectangle;html=1;whiteSpace=wrap;connectable=0;fillColor=none;top=0;left=0;bottom=0;right=0;overflow=hidden;fontFamily=Roboto;fontSize=9;fontColor=#000000;" parent="205" vertex="1">
          <mxGeometry x="1049" width="61" height="20" as="geometry">
            <mxRectangle width="61" height="20" as="alternateBounds" />
          </mxGeometry>
        </mxCell>
        <mxCell id="247" value="Click Here" style="shape=partialRectangle;html=1;whiteSpace=wrap;connectable=0;fillColor=none;top=0;left=0;bottom=0;right=0;overflow=hidden;fontFamily=Roboto;fontSize=9;fontColor=#6666FF;fontStyle=4" parent="205" vertex="1">
          <mxGeometry x="1110" width="60" height="20" as="geometry">
            <mxRectangle width="60" height="20" as="alternateBounds" />
          </mxGeometry>
        </mxCell>
        <mxCell id="n6d9y7SIBVnWGOxXG-Kv-472" value="" style="shape=tableRow;horizontal=0;startSize=0;swimlaneHead=0;swimlaneBody=0;top=0;left=0;bottom=0;right=0;collapsible=0;dropTarget=0;fillColor=none;points=[[0,0.5],[1,0.5]];portConstraint=eastwest;fontFamily=Roboto;fontSize=9;fontColor=#6666FF;" vertex="1" parent="200">
          <mxGeometry y="54" width="1170" height="19" as="geometry" />
        </mxCell>
        <mxCell id="n6d9y7SIBVnWGOxXG-Kv-473" value="NIFTY 50" style="shape=partialRectangle;html=1;whiteSpace=wrap;connectable=0;fillColor=none;top=0;left=0;bottom=0;right=0;overflow=hidden;fontFamily=Roboto;fontSize=9;fontColor=#000000;" vertex="1" parent="n6d9y7SIBVnWGOxXG-Kv-472">
          <mxGeometry width="60" height="19" as="geometry">
            <mxRectangle width="60" height="19" as="alternateBounds" />
          </mxGeometry>
        </mxCell>
        <mxCell id="n6d9y7SIBVnWGOxXG-Kv-474" value="2" style="shape=partialRectangle;html=1;whiteSpace=wrap;connectable=0;fillColor=none;top=0;left=0;bottom=0;right=0;overflow=hidden;fontFamily=Roboto;fontSize=9;fontColor=#000000;" vertex="1" parent="n6d9y7SIBVnWGOxXG-Kv-472">
          <mxGeometry x="60" width="30" height="19" as="geometry">
            <mxRectangle width="30" height="19" as="alternateBounds" />
          </mxGeometry>
        </mxCell>
        <mxCell id="n6d9y7SIBVnWGOxXG-Kv-475" value="ADANIPORTS" style="shape=partialRectangle;html=1;whiteSpace=wrap;connectable=0;fillColor=none;top=0;left=0;bottom=0;right=0;overflow=hidden;fontFamily=Roboto;fontSize=9;fontColor=#000000;" vertex="1" parent="n6d9y7SIBVnWGOxXG-Kv-472">
          <mxGeometry x="90" width="90" height="19" as="geometry">
            <mxRectangle width="90" height="19" as="alternateBounds" />
          </mxGeometry>
        </mxCell>
        <mxCell id="n6d9y7SIBVnWGOxXG-Kv-476" value="Red candle" style="shape=partialRectangle;html=1;whiteSpace=wrap;connectable=0;fillColor=#fa6800;top=0;left=0;bottom=0;right=0;overflow=hidden;fontFamily=Roboto;fontSize=9;fontColor=#FFFFFF;strokeColor=#C73500;" vertex="1" parent="n6d9y7SIBVnWGOxXG-Kv-472">
          <mxGeometry x="180" width="70" height="19" as="geometry">
            <mxRectangle width="70" height="19" as="alternateBounds" />
          </mxGeometry>
        </mxCell>
        <mxCell id="n6d9y7SIBVnWGOxXG-Kv-477" value="RED" style="shape=partialRectangle;html=1;whiteSpace=wrap;connectable=0;fillColor=#fa6800;top=0;left=0;bottom=0;right=0;overflow=hidden;fontFamily=Roboto;fontSize=9;fontColor=#f5f4f4;strokeColor=#C73500;" vertex="1" parent="n6d9y7SIBVnWGOxXG-Kv-472">
          <mxGeometry x="250" width="80" height="19" as="geometry">
            <mxRectangle width="80" height="19" as="alternateBounds" />
          </mxGeometry>
        </mxCell>
        <mxCell id="n6d9y7SIBVnWGOxXG-Kv-478" value="LOW" style="shape=partialRectangle;html=1;whiteSpace=wrap;connectable=0;fillColor=#fa6800;top=0;left=0;bottom=0;right=0;overflow=hidden;fontFamily=Roboto;fontSize=9;fontColor=#FFFFFF;strokeColor=#C73500;" vertex="1" parent="n6d9y7SIBVnWGOxXG-Kv-472">
          <mxGeometry x="330" width="60" height="19" as="geometry">
            <mxRectangle width="60" height="19" as="alternateBounds" />
          </mxGeometry>
        </mxCell>
        <mxCell id="n6d9y7SIBVnWGOxXG-Kv-479" value="1331" style="shape=partialRectangle;html=1;whiteSpace=wrap;connectable=0;fillColor=none;top=0;left=0;bottom=0;right=0;overflow=hidden;fontFamily=Roboto;fontSize=9;fontColor=#000000;" vertex="1" parent="n6d9y7SIBVnWGOxXG-Kv-472">
          <mxGeometry x="390" width="60" height="19" as="geometry">
            <mxRectangle width="60" height="19" as="alternateBounds" />
          </mxGeometry>
        </mxCell>
        <mxCell id="n6d9y7SIBVnWGOxXG-Kv-480" value="3087.95" style="shape=partialRectangle;html=1;whiteSpace=wrap;connectable=0;fillColor=none;top=0;left=0;bottom=0;right=0;overflow=hidden;fontFamily=Roboto;fontSize=9;fontColor=#000000;" vertex="1" parent="n6d9y7SIBVnWGOxXG-Kv-472">
          <mxGeometry x="450" width="60" height="19" as="geometry">
            <mxRectangle width="60" height="19" as="alternateBounds" />
          </mxGeometry>
        </mxCell>
        <mxCell id="n6d9y7SIBVnWGOxXG-Kv-481" value="3040" style="shape=partialRectangle;html=1;whiteSpace=wrap;connectable=0;fillColor=none;top=0;left=0;bottom=0;right=0;overflow=hidden;fontFamily=Roboto;fontSize=9;fontColor=#000000;" vertex="1" parent="n6d9y7SIBVnWGOxXG-Kv-472">
          <mxGeometry x="510" width="60" height="19" as="geometry">
            <mxRectangle width="60" height="19" as="alternateBounds" />
          </mxGeometry>
        </mxCell>
        <mxCell id="n6d9y7SIBVnWGOxXG-Kv-482" value="3043.55" style="shape=partialRectangle;html=1;whiteSpace=wrap;connectable=0;fillColor=none;top=0;left=0;bottom=0;right=0;overflow=hidden;fontFamily=Roboto;fontSize=9;fontColor=#000000;" vertex="1" parent="n6d9y7SIBVnWGOxXG-Kv-472">
          <mxGeometry x="570" width="60" height="19" as="geometry">
            <mxRectangle width="60" height="19" as="alternateBounds" />
          </mxGeometry>
        </mxCell>
        <mxCell id="n6d9y7SIBVnWGOxXG-Kv-483" value="3254.6" style="shape=partialRectangle;html=1;whiteSpace=wrap;connectable=0;fillColor=none;top=0;left=0;bottom=0;right=0;overflow=hidden;fontFamily=Roboto;fontSize=9;fontColor=#000000;" vertex="1" parent="n6d9y7SIBVnWGOxXG-Kv-472">
          <mxGeometry x="630" width="59" height="19" as="geometry">
            <mxRectangle width="59" height="19" as="alternateBounds" />
          </mxGeometry>
        </mxCell>
        <mxCell id="n6d9y7SIBVnWGOxXG-Kv-484" value="0" style="shape=partialRectangle;html=1;whiteSpace=wrap;connectable=0;fillColor=none;top=0;left=0;bottom=0;right=0;overflow=hidden;fontFamily=Roboto;fontSize=9;fontColor=#000000;" vertex="1" parent="n6d9y7SIBVnWGOxXG-Kv-472">
          <mxGeometry x="689" width="61" height="19" as="geometry">
            <mxRectangle width="61" height="19" as="alternateBounds" />
          </mxGeometry>
        </mxCell>
        <mxCell id="n6d9y7SIBVnWGOxXG-Kv-485" value="3057.13" style="shape=partialRectangle;html=1;whiteSpace=wrap;connectable=0;fillColor=none;top=0;left=0;bottom=0;right=0;overflow=hidden;fontFamily=Roboto;fontSize=9;fontColor=#000000;" vertex="1" parent="n6d9y7SIBVnWGOxXG-Kv-472">
          <mxGeometry x="750" width="59" height="19" as="geometry">
            <mxRectangle width="59" height="19" as="alternateBounds" />
          </mxGeometry>
        </mxCell>
        <mxCell id="n6d9y7SIBVnWGOxXG-Kv-486" value="3074.54" style="shape=partialRectangle;html=1;whiteSpace=wrap;connectable=0;fillColor=none;top=0;left=0;bottom=0;right=0;overflow=hidden;fontFamily=Roboto;fontSize=9;fontColor=#000000;" vertex="1" parent="n6d9y7SIBVnWGOxXG-Kv-472">
          <mxGeometry x="809" width="61" height="19" as="geometry">
            <mxRectangle width="61" height="19" as="alternateBounds" />
          </mxGeometry>
        </mxCell>
        <mxCell id="n6d9y7SIBVnWGOxXG-Kv-487" value="3104.25" style="shape=partialRectangle;html=1;whiteSpace=wrap;connectable=0;fillColor=none;top=0;left=0;bottom=0;right=0;overflow=hidden;fontFamily=Roboto;fontSize=9;fontColor=#000000;" vertex="1" parent="n6d9y7SIBVnWGOxXG-Kv-472">
          <mxGeometry x="870" width="59" height="19" as="geometry">
            <mxRectangle width="59" height="19" as="alternateBounds" />
          </mxGeometry>
        </mxCell>
        <mxCell id="n6d9y7SIBVnWGOxXG-Kv-488" value="3026.58" style="shape=partialRectangle;html=1;whiteSpace=wrap;connectable=0;fillColor=none;top=0;left=0;bottom=0;right=0;overflow=hidden;fontFamily=Roboto;fontSize=9;fontColor=#000000;" vertex="1" parent="n6d9y7SIBVnWGOxXG-Kv-472">
          <mxGeometry x="929" width="61" height="19" as="geometry">
            <mxRectangle width="61" height="19" as="alternateBounds" />
          </mxGeometry>
        </mxCell>
        <mxCell id="n6d9y7SIBVnWGOxXG-Kv-489" value="3009.69" style="shape=partialRectangle;html=1;whiteSpace=wrap;connectable=0;fillColor=none;top=0;left=0;bottom=0;right=0;overflow=hidden;fontFamily=Roboto;fontSize=9;fontColor=#000000;" vertex="1" parent="n6d9y7SIBVnWGOxXG-Kv-472">
          <mxGeometry x="990" width="59" height="19" as="geometry">
            <mxRectangle width="59" height="19" as="alternateBounds" />
          </mxGeometry>
        </mxCell>
        <mxCell id="n6d9y7SIBVnWGOxXG-Kv-490" value="No" style="shape=partialRectangle;html=1;whiteSpace=wrap;connectable=0;fillColor=none;top=0;left=0;bottom=0;right=0;overflow=hidden;fontFamily=Roboto;fontSize=9;fontColor=#000000;" vertex="1" parent="n6d9y7SIBVnWGOxXG-Kv-472">
          <mxGeometry x="1049" width="61" height="19" as="geometry">
            <mxRectangle width="61" height="19" as="alternateBounds" />
          </mxGeometry>
        </mxCell>
        <mxCell id="n6d9y7SIBVnWGOxXG-Kv-491" value="Click Here" style="shape=partialRectangle;html=1;whiteSpace=wrap;connectable=0;fillColor=none;top=0;left=0;bottom=0;right=0;overflow=hidden;fontFamily=Roboto;fontSize=9;fontColor=#6666FF;fontStyle=4" vertex="1" parent="n6d9y7SIBVnWGOxXG-Kv-472">
          <mxGeometry x="1110" width="60" height="19" as="geometry">
            <mxRectangle width="60" height="19" as="alternateBounds" />
          </mxGeometry>
        </mxCell>
        <mxCell id="n6d9y7SIBVnWGOxXG-Kv-492" value="" style="shape=tableRow;horizontal=0;startSize=0;swimlaneHead=0;swimlaneBody=0;top=0;left=0;bottom=0;right=0;collapsible=0;dropTarget=0;fillColor=none;points=[[0,0.5],[1,0.5]];portConstraint=eastwest;fontFamily=Roboto;fontSize=9;fontColor=#6666FF;" vertex="1" parent="200">
          <mxGeometry y="73" width="1170" height="19" as="geometry" />
        </mxCell>
        <mxCell id="n6d9y7SIBVnWGOxXG-Kv-493" value="NIFTY 50" style="shape=partialRectangle;html=1;whiteSpace=wrap;connectable=0;fillColor=none;top=0;left=0;bottom=0;right=0;overflow=hidden;fontFamily=Roboto;fontSize=9;fontColor=#000000;" vertex="1" parent="n6d9y7SIBVnWGOxXG-Kv-492">
          <mxGeometry width="60" height="19" as="geometry">
            <mxRectangle width="60" height="19" as="alternateBounds" />
          </mxGeometry>
        </mxCell>
        <mxCell id="n6d9y7SIBVnWGOxXG-Kv-494" value="3" style="shape=partialRectangle;html=1;whiteSpace=wrap;connectable=0;fillColor=none;top=0;left=0;bottom=0;right=0;overflow=hidden;fontFamily=Roboto;fontSize=9;fontColor=#000000;" vertex="1" parent="n6d9y7SIBVnWGOxXG-Kv-492">
          <mxGeometry x="60" width="30" height="19" as="geometry">
            <mxRectangle width="30" height="19" as="alternateBounds" />
          </mxGeometry>
        </mxCell>
        <mxCell id="n6d9y7SIBVnWGOxXG-Kv-495" value="APOLLOHOSP" style="shape=partialRectangle;html=1;whiteSpace=wrap;connectable=0;fillColor=none;top=0;left=0;bottom=0;right=0;overflow=hidden;fontFamily=Roboto;fontSize=9;fontColor=#000000;" vertex="1" parent="n6d9y7SIBVnWGOxXG-Kv-492">
          <mxGeometry x="90" width="90" height="19" as="geometry">
            <mxRectangle width="90" height="19" as="alternateBounds" />
          </mxGeometry>
        </mxCell>
        <mxCell id="n6d9y7SIBVnWGOxXG-Kv-496" value="No Breakout" style="shape=partialRectangle;html=1;whiteSpace=wrap;connectable=0;fillColor=#fa6800;top=0;left=0;bottom=0;right=0;overflow=hidden;fontFamily=Roboto;fontSize=9;fontColor=#FFFFFF;strokeColor=#C73500;" vertex="1" parent="n6d9y7SIBVnWGOxXG-Kv-492">
          <mxGeometry x="180" width="70" height="19" as="geometry">
            <mxRectangle width="70" height="19" as="alternateBounds" />
          </mxGeometry>
        </mxCell>
        <mxCell id="n6d9y7SIBVnWGOxXG-Kv-497" value="GREEN" style="shape=partialRectangle;html=1;whiteSpace=wrap;connectable=0;fillColor=#00ff00;top=0;left=0;bottom=0;right=0;overflow=hidden;fontFamily=Roboto;fontSize=9;fontColor=#000000;strokeColor=#B20000;" vertex="1" parent="n6d9y7SIBVnWGOxXG-Kv-492">
          <mxGeometry x="250" width="80" height="19" as="geometry">
            <mxRectangle width="80" height="19" as="alternateBounds" />
          </mxGeometry>
        </mxCell>
        <mxCell id="n6d9y7SIBVnWGOxXG-Kv-498" value="LOW" style="shape=partialRectangle;html=1;whiteSpace=wrap;connectable=0;fillColor=#fa6800;top=0;left=0;bottom=0;right=0;overflow=hidden;fontFamily=Roboto;fontSize=9;fontColor=#FFFFFF;strokeColor=#C73500;" vertex="1" parent="n6d9y7SIBVnWGOxXG-Kv-492">
          <mxGeometry x="330" width="60" height="19" as="geometry">
            <mxRectangle width="60" height="19" as="alternateBounds" />
          </mxGeometry>
        </mxCell>
        <mxCell id="n6d9y7SIBVnWGOxXG-Kv-499" value="6229.69" style="shape=partialRectangle;html=1;whiteSpace=wrap;connectable=0;fillColor=none;top=0;left=0;bottom=0;right=0;overflow=hidden;fontFamily=Roboto;fontSize=9;fontColor=#000000;" vertex="1" parent="n6d9y7SIBVnWGOxXG-Kv-492">
          <mxGeometry x="390" width="60" height="19" as="geometry">
            <mxRectangle width="60" height="19" as="alternateBounds" />
          </mxGeometry>
        </mxCell>
        <mxCell id="n6d9y7SIBVnWGOxXG-Kv-500" value="3087.95" style="shape=partialRectangle;html=1;whiteSpace=wrap;connectable=0;fillColor=none;top=0;left=0;bottom=0;right=0;overflow=hidden;fontFamily=Roboto;fontSize=9;fontColor=#000000;" vertex="1" parent="n6d9y7SIBVnWGOxXG-Kv-492">
          <mxGeometry x="450" width="60" height="19" as="geometry">
            <mxRectangle width="60" height="19" as="alternateBounds" />
          </mxGeometry>
        </mxCell>
        <mxCell id="n6d9y7SIBVnWGOxXG-Kv-501" value="3040" style="shape=partialRectangle;html=1;whiteSpace=wrap;connectable=0;fillColor=none;top=0;left=0;bottom=0;right=0;overflow=hidden;fontFamily=Roboto;fontSize=9;fontColor=#000000;" vertex="1" parent="n6d9y7SIBVnWGOxXG-Kv-492">
          <mxGeometry x="510" width="60" height="19" as="geometry">
            <mxRectangle width="60" height="19" as="alternateBounds" />
          </mxGeometry>
        </mxCell>
        <mxCell id="n6d9y7SIBVnWGOxXG-Kv-502" value="3043.55" style="shape=partialRectangle;html=1;whiteSpace=wrap;connectable=0;fillColor=none;top=0;left=0;bottom=0;right=0;overflow=hidden;fontFamily=Roboto;fontSize=9;fontColor=#000000;" vertex="1" parent="n6d9y7SIBVnWGOxXG-Kv-492">
          <mxGeometry x="570" width="60" height="19" as="geometry">
            <mxRectangle width="60" height="19" as="alternateBounds" />
          </mxGeometry>
        </mxCell>
        <mxCell id="n6d9y7SIBVnWGOxXG-Kv-503" value="3254.6" style="shape=partialRectangle;html=1;whiteSpace=wrap;connectable=0;fillColor=none;top=0;left=0;bottom=0;right=0;overflow=hidden;fontFamily=Roboto;fontSize=9;fontColor=#000000;" vertex="1" parent="n6d9y7SIBVnWGOxXG-Kv-492">
          <mxGeometry x="630" width="59" height="19" as="geometry">
            <mxRectangle width="59" height="19" as="alternateBounds" />
          </mxGeometry>
        </mxCell>
        <mxCell id="n6d9y7SIBVnWGOxXG-Kv-504" value="0" style="shape=partialRectangle;html=1;whiteSpace=wrap;connectable=0;fillColor=none;top=0;left=0;bottom=0;right=0;overflow=hidden;fontFamily=Roboto;fontSize=9;fontColor=#000000;" vertex="1" parent="n6d9y7SIBVnWGOxXG-Kv-492">
          <mxGeometry x="689" width="61" height="19" as="geometry">
            <mxRectangle width="61" height="19" as="alternateBounds" />
          </mxGeometry>
        </mxCell>
        <mxCell id="n6d9y7SIBVnWGOxXG-Kv-505" value="3057.13" style="shape=partialRectangle;html=1;whiteSpace=wrap;connectable=0;fillColor=none;top=0;left=0;bottom=0;right=0;overflow=hidden;fontFamily=Roboto;fontSize=9;fontColor=#000000;" vertex="1" parent="n6d9y7SIBVnWGOxXG-Kv-492">
          <mxGeometry x="750" width="59" height="19" as="geometry">
            <mxRectangle width="59" height="19" as="alternateBounds" />
          </mxGeometry>
        </mxCell>
        <mxCell id="n6d9y7SIBVnWGOxXG-Kv-506" value="3074.54" style="shape=partialRectangle;html=1;whiteSpace=wrap;connectable=0;fillColor=none;top=0;left=0;bottom=0;right=0;overflow=hidden;fontFamily=Roboto;fontSize=9;fontColor=#000000;" vertex="1" parent="n6d9y7SIBVnWGOxXG-Kv-492">
          <mxGeometry x="809" width="61" height="19" as="geometry">
            <mxRectangle width="61" height="19" as="alternateBounds" />
          </mxGeometry>
        </mxCell>
        <mxCell id="n6d9y7SIBVnWGOxXG-Kv-507" value="3104.25" style="shape=partialRectangle;html=1;whiteSpace=wrap;connectable=0;fillColor=none;top=0;left=0;bottom=0;right=0;overflow=hidden;fontFamily=Roboto;fontSize=9;fontColor=#000000;" vertex="1" parent="n6d9y7SIBVnWGOxXG-Kv-492">
          <mxGeometry x="870" width="59" height="19" as="geometry">
            <mxRectangle width="59" height="19" as="alternateBounds" />
          </mxGeometry>
        </mxCell>
        <mxCell id="n6d9y7SIBVnWGOxXG-Kv-508" value="3026.58" style="shape=partialRectangle;html=1;whiteSpace=wrap;connectable=0;fillColor=none;top=0;left=0;bottom=0;right=0;overflow=hidden;fontFamily=Roboto;fontSize=9;fontColor=#000000;" vertex="1" parent="n6d9y7SIBVnWGOxXG-Kv-492">
          <mxGeometry x="929" width="61" height="19" as="geometry">
            <mxRectangle width="61" height="19" as="alternateBounds" />
          </mxGeometry>
        </mxCell>
        <mxCell id="n6d9y7SIBVnWGOxXG-Kv-509" value="3009.69" style="shape=partialRectangle;html=1;whiteSpace=wrap;connectable=0;fillColor=none;top=0;left=0;bottom=0;right=0;overflow=hidden;fontFamily=Roboto;fontSize=9;fontColor=#000000;" vertex="1" parent="n6d9y7SIBVnWGOxXG-Kv-492">
          <mxGeometry x="990" width="59" height="19" as="geometry">
            <mxRectangle width="59" height="19" as="alternateBounds" />
          </mxGeometry>
        </mxCell>
        <mxCell id="n6d9y7SIBVnWGOxXG-Kv-510" value="No" style="shape=partialRectangle;html=1;whiteSpace=wrap;connectable=0;fillColor=none;top=0;left=0;bottom=0;right=0;overflow=hidden;fontFamily=Roboto;fontSize=9;fontColor=#000000;" vertex="1" parent="n6d9y7SIBVnWGOxXG-Kv-492">
          <mxGeometry x="1049" width="61" height="19" as="geometry">
            <mxRectangle width="61" height="19" as="alternateBounds" />
          </mxGeometry>
        </mxCell>
        <mxCell id="n6d9y7SIBVnWGOxXG-Kv-511" value="Click Here" style="shape=partialRectangle;html=1;whiteSpace=wrap;connectable=0;fillColor=none;top=0;left=0;bottom=0;right=0;overflow=hidden;fontFamily=Roboto;fontSize=9;fontColor=#6666FF;fontStyle=4" vertex="1" parent="n6d9y7SIBVnWGOxXG-Kv-492">
          <mxGeometry x="1110" width="60" height="19" as="geometry">
            <mxRectangle width="60" height="19" as="alternateBounds" />
          </mxGeometry>
        </mxCell>
        <mxCell id="n6d9y7SIBVnWGOxXG-Kv-512" value="" style="shape=tableRow;horizontal=0;startSize=0;swimlaneHead=0;swimlaneBody=0;top=0;left=0;bottom=0;right=0;collapsible=0;dropTarget=0;fillColor=none;points=[[0,0.5],[1,0.5]];portConstraint=eastwest;fontFamily=Roboto;fontSize=9;fontColor=#6666FF;" vertex="1" parent="200">
          <mxGeometry y="92" width="1170" height="19" as="geometry" />
        </mxCell>
        <mxCell id="n6d9y7SIBVnWGOxXG-Kv-513" value="NIFTY 50" style="shape=partialRectangle;html=1;whiteSpace=wrap;connectable=0;fillColor=none;top=0;left=0;bottom=0;right=0;overflow=hidden;fontFamily=Roboto;fontSize=9;fontColor=#000000;" vertex="1" parent="n6d9y7SIBVnWGOxXG-Kv-512">
          <mxGeometry width="60" height="19" as="geometry">
            <mxRectangle width="60" height="19" as="alternateBounds" />
          </mxGeometry>
        </mxCell>
        <mxCell id="n6d9y7SIBVnWGOxXG-Kv-514" value="4" style="shape=partialRectangle;html=1;whiteSpace=wrap;connectable=0;fillColor=none;top=0;left=0;bottom=0;right=0;overflow=hidden;fontFamily=Roboto;fontSize=9;fontColor=#000000;" vertex="1" parent="n6d9y7SIBVnWGOxXG-Kv-512">
          <mxGeometry x="60" width="30" height="19" as="geometry">
            <mxRectangle width="30" height="19" as="alternateBounds" />
          </mxGeometry>
        </mxCell>
        <mxCell id="n6d9y7SIBVnWGOxXG-Kv-515" value="ASIANPAINT" style="shape=partialRectangle;html=1;whiteSpace=wrap;connectable=0;fillColor=none;top=0;left=0;bottom=0;right=0;overflow=hidden;fontFamily=Roboto;fontSize=9;fontColor=#000000;" vertex="1" parent="n6d9y7SIBVnWGOxXG-Kv-512">
          <mxGeometry x="90" width="90" height="19" as="geometry">
            <mxRectangle width="90" height="19" as="alternateBounds" />
          </mxGeometry>
        </mxCell>
        <mxCell id="n6d9y7SIBVnWGOxXG-Kv-516" value="Red candle" style="shape=partialRectangle;html=1;whiteSpace=wrap;connectable=0;fillColor=#fa6800;top=0;left=0;bottom=0;right=0;overflow=hidden;fontFamily=Roboto;fontSize=9;fontColor=#FFFFFF;strokeColor=#C73500;" vertex="1" parent="n6d9y7SIBVnWGOxXG-Kv-512">
          <mxGeometry x="180" width="70" height="19" as="geometry">
            <mxRectangle width="70" height="19" as="alternateBounds" />
          </mxGeometry>
        </mxCell>
        <mxCell id="n6d9y7SIBVnWGOxXG-Kv-517" value="RED" style="shape=partialRectangle;html=1;whiteSpace=wrap;connectable=0;fillColor=#fa6800;top=0;left=0;bottom=0;right=0;overflow=hidden;fontFamily=Roboto;fontSize=9;fontColor=#f5f4f4;strokeColor=#C73500;" vertex="1" parent="n6d9y7SIBVnWGOxXG-Kv-512">
          <mxGeometry x="250" width="80" height="19" as="geometry">
            <mxRectangle width="80" height="19" as="alternateBounds" />
          </mxGeometry>
        </mxCell>
        <mxCell id="n6d9y7SIBVnWGOxXG-Kv-518" value="LOW" style="shape=partialRectangle;html=1;whiteSpace=wrap;connectable=0;fillColor=#fa6800;top=0;left=0;bottom=0;right=0;overflow=hidden;fontFamily=Roboto;fontSize=9;fontColor=#FFFFFF;strokeColor=#C73500;" vertex="1" parent="n6d9y7SIBVnWGOxXG-Kv-512">
          <mxGeometry x="330" width="60" height="19" as="geometry">
            <mxRectangle width="60" height="19" as="alternateBounds" />
          </mxGeometry>
        </mxCell>
        <mxCell id="n6d9y7SIBVnWGOxXG-Kv-519" value="2882.95" style="shape=partialRectangle;html=1;whiteSpace=wrap;connectable=0;fillColor=none;top=0;left=0;bottom=0;right=0;overflow=hidden;fontFamily=Roboto;fontSize=9;fontColor=#000000;" vertex="1" parent="n6d9y7SIBVnWGOxXG-Kv-512">
          <mxGeometry x="390" width="60" height="19" as="geometry">
            <mxRectangle width="60" height="19" as="alternateBounds" />
          </mxGeometry>
        </mxCell>
        <mxCell id="n6d9y7SIBVnWGOxXG-Kv-520" value="3087.95" style="shape=partialRectangle;html=1;whiteSpace=wrap;connectable=0;fillColor=none;top=0;left=0;bottom=0;right=0;overflow=hidden;fontFamily=Roboto;fontSize=9;fontColor=#000000;" vertex="1" parent="n6d9y7SIBVnWGOxXG-Kv-512">
          <mxGeometry x="450" width="60" height="19" as="geometry">
            <mxRectangle width="60" height="19" as="alternateBounds" />
          </mxGeometry>
        </mxCell>
        <mxCell id="n6d9y7SIBVnWGOxXG-Kv-521" value="3040" style="shape=partialRectangle;html=1;whiteSpace=wrap;connectable=0;fillColor=none;top=0;left=0;bottom=0;right=0;overflow=hidden;fontFamily=Roboto;fontSize=9;fontColor=#000000;" vertex="1" parent="n6d9y7SIBVnWGOxXG-Kv-512">
          <mxGeometry x="510" width="60" height="19" as="geometry">
            <mxRectangle width="60" height="19" as="alternateBounds" />
          </mxGeometry>
        </mxCell>
        <mxCell id="n6d9y7SIBVnWGOxXG-Kv-522" value="3043.55" style="shape=partialRectangle;html=1;whiteSpace=wrap;connectable=0;fillColor=none;top=0;left=0;bottom=0;right=0;overflow=hidden;fontFamily=Roboto;fontSize=9;fontColor=#000000;" vertex="1" parent="n6d9y7SIBVnWGOxXG-Kv-512">
          <mxGeometry x="570" width="60" height="19" as="geometry">
            <mxRectangle width="60" height="19" as="alternateBounds" />
          </mxGeometry>
        </mxCell>
        <mxCell id="n6d9y7SIBVnWGOxXG-Kv-523" value="3254.6" style="shape=partialRectangle;html=1;whiteSpace=wrap;connectable=0;fillColor=none;top=0;left=0;bottom=0;right=0;overflow=hidden;fontFamily=Roboto;fontSize=9;fontColor=#000000;" vertex="1" parent="n6d9y7SIBVnWGOxXG-Kv-512">
          <mxGeometry x="630" width="59" height="19" as="geometry">
            <mxRectangle width="59" height="19" as="alternateBounds" />
          </mxGeometry>
        </mxCell>
        <mxCell id="n6d9y7SIBVnWGOxXG-Kv-524" value="0" style="shape=partialRectangle;html=1;whiteSpace=wrap;connectable=0;fillColor=none;top=0;left=0;bottom=0;right=0;overflow=hidden;fontFamily=Roboto;fontSize=9;fontColor=#000000;" vertex="1" parent="n6d9y7SIBVnWGOxXG-Kv-512">
          <mxGeometry x="689" width="61" height="19" as="geometry">
            <mxRectangle width="61" height="19" as="alternateBounds" />
          </mxGeometry>
        </mxCell>
        <mxCell id="n6d9y7SIBVnWGOxXG-Kv-525" value="3057.13" style="shape=partialRectangle;html=1;whiteSpace=wrap;connectable=0;fillColor=none;top=0;left=0;bottom=0;right=0;overflow=hidden;fontFamily=Roboto;fontSize=9;fontColor=#000000;" vertex="1" parent="n6d9y7SIBVnWGOxXG-Kv-512">
          <mxGeometry x="750" width="59" height="19" as="geometry">
            <mxRectangle width="59" height="19" as="alternateBounds" />
          </mxGeometry>
        </mxCell>
        <mxCell id="n6d9y7SIBVnWGOxXG-Kv-526" value="3074.54" style="shape=partialRectangle;html=1;whiteSpace=wrap;connectable=0;fillColor=none;top=0;left=0;bottom=0;right=0;overflow=hidden;fontFamily=Roboto;fontSize=9;fontColor=#000000;" vertex="1" parent="n6d9y7SIBVnWGOxXG-Kv-512">
          <mxGeometry x="809" width="61" height="19" as="geometry">
            <mxRectangle width="61" height="19" as="alternateBounds" />
          </mxGeometry>
        </mxCell>
        <mxCell id="n6d9y7SIBVnWGOxXG-Kv-527" value="3104.25" style="shape=partialRectangle;html=1;whiteSpace=wrap;connectable=0;fillColor=none;top=0;left=0;bottom=0;right=0;overflow=hidden;fontFamily=Roboto;fontSize=9;fontColor=#000000;" vertex="1" parent="n6d9y7SIBVnWGOxXG-Kv-512">
          <mxGeometry x="870" width="59" height="19" as="geometry">
            <mxRectangle width="59" height="19" as="alternateBounds" />
          </mxGeometry>
        </mxCell>
        <mxCell id="n6d9y7SIBVnWGOxXG-Kv-528" value="3026.58" style="shape=partialRectangle;html=1;whiteSpace=wrap;connectable=0;fillColor=none;top=0;left=0;bottom=0;right=0;overflow=hidden;fontFamily=Roboto;fontSize=9;fontColor=#000000;" vertex="1" parent="n6d9y7SIBVnWGOxXG-Kv-512">
          <mxGeometry x="929" width="61" height="19" as="geometry">
            <mxRectangle width="61" height="19" as="alternateBounds" />
          </mxGeometry>
        </mxCell>
        <mxCell id="n6d9y7SIBVnWGOxXG-Kv-529" value="3009.69" style="shape=partialRectangle;html=1;whiteSpace=wrap;connectable=0;fillColor=none;top=0;left=0;bottom=0;right=0;overflow=hidden;fontFamily=Roboto;fontSize=9;fontColor=#000000;" vertex="1" parent="n6d9y7SIBVnWGOxXG-Kv-512">
          <mxGeometry x="990" width="59" height="19" as="geometry">
            <mxRectangle width="59" height="19" as="alternateBounds" />
          </mxGeometry>
        </mxCell>
        <mxCell id="n6d9y7SIBVnWGOxXG-Kv-530" value="No" style="shape=partialRectangle;html=1;whiteSpace=wrap;connectable=0;fillColor=none;top=0;left=0;bottom=0;right=0;overflow=hidden;fontFamily=Roboto;fontSize=9;fontColor=#000000;" vertex="1" parent="n6d9y7SIBVnWGOxXG-Kv-512">
          <mxGeometry x="1049" width="61" height="19" as="geometry">
            <mxRectangle width="61" height="19" as="alternateBounds" />
          </mxGeometry>
        </mxCell>
        <mxCell id="n6d9y7SIBVnWGOxXG-Kv-531" value="Click Here" style="shape=partialRectangle;html=1;whiteSpace=wrap;connectable=0;fillColor=none;top=0;left=0;bottom=0;right=0;overflow=hidden;fontFamily=Roboto;fontSize=9;fontColor=#6666FF;fontStyle=4" vertex="1" parent="n6d9y7SIBVnWGOxXG-Kv-512">
          <mxGeometry x="1110" width="60" height="19" as="geometry">
            <mxRectangle width="60" height="19" as="alternateBounds" />
          </mxGeometry>
        </mxCell>
        <mxCell id="n6d9y7SIBVnWGOxXG-Kv-532" value="" style="shape=tableRow;horizontal=0;startSize=0;swimlaneHead=0;swimlaneBody=0;top=0;left=0;bottom=0;right=0;collapsible=0;dropTarget=0;fillColor=none;points=[[0,0.5],[1,0.5]];portConstraint=eastwest;fontFamily=Roboto;fontSize=9;fontColor=#6666FF;" vertex="1" parent="200">
          <mxGeometry y="111" width="1170" height="19" as="geometry" />
        </mxCell>
        <mxCell id="n6d9y7SIBVnWGOxXG-Kv-533" value="NIFTY 50" style="shape=partialRectangle;html=1;whiteSpace=wrap;connectable=0;fillColor=none;top=0;left=0;bottom=0;right=0;overflow=hidden;fontFamily=Roboto;fontSize=9;fontColor=#000000;" vertex="1" parent="n6d9y7SIBVnWGOxXG-Kv-532">
          <mxGeometry width="60" height="19" as="geometry">
            <mxRectangle width="60" height="19" as="alternateBounds" />
          </mxGeometry>
        </mxCell>
        <mxCell id="n6d9y7SIBVnWGOxXG-Kv-534" value="5" style="shape=partialRectangle;html=1;whiteSpace=wrap;connectable=0;fillColor=none;top=0;left=0;bottom=0;right=0;overflow=hidden;fontFamily=Roboto;fontSize=9;fontColor=#000000;" vertex="1" parent="n6d9y7SIBVnWGOxXG-Kv-532">
          <mxGeometry x="60" width="30" height="19" as="geometry">
            <mxRectangle width="30" height="19" as="alternateBounds" />
          </mxGeometry>
        </mxCell>
        <mxCell id="n6d9y7SIBVnWGOxXG-Kv-535" value="AXISBANK" style="shape=partialRectangle;html=1;whiteSpace=wrap;connectable=0;fillColor=none;top=0;left=0;bottom=0;right=0;overflow=hidden;fontFamily=Roboto;fontSize=9;fontColor=#000000;" vertex="1" parent="n6d9y7SIBVnWGOxXG-Kv-532">
          <mxGeometry x="90" width="90" height="19" as="geometry">
            <mxRectangle width="90" height="19" as="alternateBounds" />
          </mxGeometry>
        </mxCell>
        <mxCell id="n6d9y7SIBVnWGOxXG-Kv-536" value="No Breakout" style="shape=partialRectangle;html=1;whiteSpace=wrap;connectable=0;fillColor=#fa6800;top=0;left=0;bottom=0;right=0;overflow=hidden;fontFamily=Roboto;fontSize=9;fontColor=#FFFFFF;strokeColor=#C73500;" vertex="1" parent="n6d9y7SIBVnWGOxXG-Kv-532">
          <mxGeometry x="180" width="70" height="19" as="geometry">
            <mxRectangle width="70" height="19" as="alternateBounds" />
          </mxGeometry>
        </mxCell>
        <mxCell id="n6d9y7SIBVnWGOxXG-Kv-537" value="GREEN" style="shape=partialRectangle;html=1;whiteSpace=wrap;connectable=0;fillColor=#00FF00;top=0;left=0;bottom=0;right=0;overflow=hidden;fontFamily=Roboto;fontSize=9;fontColor=#000000;strokeColor=#C73500;" vertex="1" parent="n6d9y7SIBVnWGOxXG-Kv-532">
          <mxGeometry x="250" width="80" height="19" as="geometry">
            <mxRectangle width="80" height="19" as="alternateBounds" />
          </mxGeometry>
        </mxCell>
        <mxCell id="n6d9y7SIBVnWGOxXG-Kv-538" value="LOW" style="shape=partialRectangle;html=1;whiteSpace=wrap;connectable=0;fillColor=#fa6800;top=0;left=0;bottom=0;right=0;overflow=hidden;fontFamily=Roboto;fontSize=9;fontColor=#FFFFFF;strokeColor=#C73500;" vertex="1" parent="n6d9y7SIBVnWGOxXG-Kv-532">
          <mxGeometry x="330" width="60" height="19" as="geometry">
            <mxRectangle width="60" height="19" as="alternateBounds" />
          </mxGeometry>
        </mxCell>
        <mxCell id="n6d9y7SIBVnWGOxXG-Kv-539" value="1056" style="shape=partialRectangle;html=1;whiteSpace=wrap;connectable=0;fillColor=none;top=0;left=0;bottom=0;right=0;overflow=hidden;fontFamily=Roboto;fontSize=9;fontColor=#000000;" vertex="1" parent="n6d9y7SIBVnWGOxXG-Kv-532">
          <mxGeometry x="390" width="60" height="19" as="geometry">
            <mxRectangle width="60" height="19" as="alternateBounds" />
          </mxGeometry>
        </mxCell>
        <mxCell id="n6d9y7SIBVnWGOxXG-Kv-540" value="3087.95" style="shape=partialRectangle;html=1;whiteSpace=wrap;connectable=0;fillColor=none;top=0;left=0;bottom=0;right=0;overflow=hidden;fontFamily=Roboto;fontSize=9;fontColor=#000000;" vertex="1" parent="n6d9y7SIBVnWGOxXG-Kv-532">
          <mxGeometry x="450" width="60" height="19" as="geometry">
            <mxRectangle width="60" height="19" as="alternateBounds" />
          </mxGeometry>
        </mxCell>
        <mxCell id="n6d9y7SIBVnWGOxXG-Kv-541" value="3040" style="shape=partialRectangle;html=1;whiteSpace=wrap;connectable=0;fillColor=none;top=0;left=0;bottom=0;right=0;overflow=hidden;fontFamily=Roboto;fontSize=9;fontColor=#000000;" vertex="1" parent="n6d9y7SIBVnWGOxXG-Kv-532">
          <mxGeometry x="510" width="60" height="19" as="geometry">
            <mxRectangle width="60" height="19" as="alternateBounds" />
          </mxGeometry>
        </mxCell>
        <mxCell id="n6d9y7SIBVnWGOxXG-Kv-542" value="3043.55" style="shape=partialRectangle;html=1;whiteSpace=wrap;connectable=0;fillColor=none;top=0;left=0;bottom=0;right=0;overflow=hidden;fontFamily=Roboto;fontSize=9;fontColor=#000000;" vertex="1" parent="n6d9y7SIBVnWGOxXG-Kv-532">
          <mxGeometry x="570" width="60" height="19" as="geometry">
            <mxRectangle width="60" height="19" as="alternateBounds" />
          </mxGeometry>
        </mxCell>
        <mxCell id="n6d9y7SIBVnWGOxXG-Kv-543" value="3254.6" style="shape=partialRectangle;html=1;whiteSpace=wrap;connectable=0;fillColor=none;top=0;left=0;bottom=0;right=0;overflow=hidden;fontFamily=Roboto;fontSize=9;fontColor=#000000;" vertex="1" parent="n6d9y7SIBVnWGOxXG-Kv-532">
          <mxGeometry x="630" width="59" height="19" as="geometry">
            <mxRectangle width="59" height="19" as="alternateBounds" />
          </mxGeometry>
        </mxCell>
        <mxCell id="n6d9y7SIBVnWGOxXG-Kv-544" value="0" style="shape=partialRectangle;html=1;whiteSpace=wrap;connectable=0;fillColor=none;top=0;left=0;bottom=0;right=0;overflow=hidden;fontFamily=Roboto;fontSize=9;fontColor=#000000;" vertex="1" parent="n6d9y7SIBVnWGOxXG-Kv-532">
          <mxGeometry x="689" width="61" height="19" as="geometry">
            <mxRectangle width="61" height="19" as="alternateBounds" />
          </mxGeometry>
        </mxCell>
        <mxCell id="n6d9y7SIBVnWGOxXG-Kv-545" value="3057.13" style="shape=partialRectangle;html=1;whiteSpace=wrap;connectable=0;fillColor=none;top=0;left=0;bottom=0;right=0;overflow=hidden;fontFamily=Roboto;fontSize=9;fontColor=#000000;" vertex="1" parent="n6d9y7SIBVnWGOxXG-Kv-532">
          <mxGeometry x="750" width="59" height="19" as="geometry">
            <mxRectangle width="59" height="19" as="alternateBounds" />
          </mxGeometry>
        </mxCell>
        <mxCell id="n6d9y7SIBVnWGOxXG-Kv-546" value="3074.54" style="shape=partialRectangle;html=1;whiteSpace=wrap;connectable=0;fillColor=none;top=0;left=0;bottom=0;right=0;overflow=hidden;fontFamily=Roboto;fontSize=9;fontColor=#000000;" vertex="1" parent="n6d9y7SIBVnWGOxXG-Kv-532">
          <mxGeometry x="809" width="61" height="19" as="geometry">
            <mxRectangle width="61" height="19" as="alternateBounds" />
          </mxGeometry>
        </mxCell>
        <mxCell id="n6d9y7SIBVnWGOxXG-Kv-547" value="3104.25" style="shape=partialRectangle;html=1;whiteSpace=wrap;connectable=0;fillColor=none;top=0;left=0;bottom=0;right=0;overflow=hidden;fontFamily=Roboto;fontSize=9;fontColor=#000000;" vertex="1" parent="n6d9y7SIBVnWGOxXG-Kv-532">
          <mxGeometry x="870" width="59" height="19" as="geometry">
            <mxRectangle width="59" height="19" as="alternateBounds" />
          </mxGeometry>
        </mxCell>
        <mxCell id="n6d9y7SIBVnWGOxXG-Kv-548" value="3026.58" style="shape=partialRectangle;html=1;whiteSpace=wrap;connectable=0;fillColor=none;top=0;left=0;bottom=0;right=0;overflow=hidden;fontFamily=Roboto;fontSize=9;fontColor=#000000;" vertex="1" parent="n6d9y7SIBVnWGOxXG-Kv-532">
          <mxGeometry x="929" width="61" height="19" as="geometry">
            <mxRectangle width="61" height="19" as="alternateBounds" />
          </mxGeometry>
        </mxCell>
        <mxCell id="n6d9y7SIBVnWGOxXG-Kv-549" value="3009.69" style="shape=partialRectangle;html=1;whiteSpace=wrap;connectable=0;fillColor=none;top=0;left=0;bottom=0;right=0;overflow=hidden;fontFamily=Roboto;fontSize=9;fontColor=#000000;" vertex="1" parent="n6d9y7SIBVnWGOxXG-Kv-532">
          <mxGeometry x="990" width="59" height="19" as="geometry">
            <mxRectangle width="59" height="19" as="alternateBounds" />
          </mxGeometry>
        </mxCell>
        <mxCell id="n6d9y7SIBVnWGOxXG-Kv-550" value="No" style="shape=partialRectangle;html=1;whiteSpace=wrap;connectable=0;fillColor=none;top=0;left=0;bottom=0;right=0;overflow=hidden;fontFamily=Roboto;fontSize=9;fontColor=#000000;" vertex="1" parent="n6d9y7SIBVnWGOxXG-Kv-532">
          <mxGeometry x="1049" width="61" height="19" as="geometry">
            <mxRectangle width="61" height="19" as="alternateBounds" />
          </mxGeometry>
        </mxCell>
        <mxCell id="n6d9y7SIBVnWGOxXG-Kv-551" value="Click Here" style="shape=partialRectangle;html=1;whiteSpace=wrap;connectable=0;fillColor=none;top=0;left=0;bottom=0;right=0;overflow=hidden;fontFamily=Roboto;fontSize=9;fontColor=#6666FF;fontStyle=4" vertex="1" parent="n6d9y7SIBVnWGOxXG-Kv-532">
          <mxGeometry x="1110" width="60" height="19" as="geometry">
            <mxRectangle width="60" height="19" as="alternateBounds" />
          </mxGeometry>
        </mxCell>
        <mxCell id="n6d9y7SIBVnWGOxXG-Kv-552" value="" style="shape=tableRow;horizontal=0;startSize=0;swimlaneHead=0;swimlaneBody=0;top=0;left=0;bottom=0;right=0;collapsible=0;dropTarget=0;fillColor=none;points=[[0,0.5],[1,0.5]];portConstraint=eastwest;fontFamily=Roboto;fontSize=9;fontColor=#6666FF;" vertex="1" parent="200">
          <mxGeometry y="130" width="1170" height="20" as="geometry" />
        </mxCell>
        <mxCell id="n6d9y7SIBVnWGOxXG-Kv-553" value="NIFTY 50" style="shape=partialRectangle;html=1;whiteSpace=wrap;connectable=0;fillColor=none;top=0;left=0;bottom=0;right=0;overflow=hidden;fontFamily=Roboto;fontSize=9;fontColor=#000000;" vertex="1" parent="n6d9y7SIBVnWGOxXG-Kv-552">
          <mxGeometry width="60" height="20" as="geometry">
            <mxRectangle width="60" height="20" as="alternateBounds" />
          </mxGeometry>
        </mxCell>
        <mxCell id="n6d9y7SIBVnWGOxXG-Kv-554" value="6" style="shape=partialRectangle;html=1;whiteSpace=wrap;connectable=0;fillColor=none;top=0;left=0;bottom=0;right=0;overflow=hidden;fontFamily=Roboto;fontSize=9;fontColor=#000000;" vertex="1" parent="n6d9y7SIBVnWGOxXG-Kv-552">
          <mxGeometry x="60" width="30" height="20" as="geometry">
            <mxRectangle width="30" height="20" as="alternateBounds" />
          </mxGeometry>
        </mxCell>
        <mxCell id="n6d9y7SIBVnWGOxXG-Kv-555" value="BAJAJ-AUTO" style="shape=partialRectangle;html=1;whiteSpace=wrap;connectable=0;fillColor=none;top=0;left=0;bottom=0;right=0;overflow=hidden;fontFamily=Roboto;fontSize=9;fontColor=#000000;" vertex="1" parent="n6d9y7SIBVnWGOxXG-Kv-552">
          <mxGeometry x="90" width="90" height="20" as="geometry">
            <mxRectangle width="90" height="20" as="alternateBounds" />
          </mxGeometry>
        </mxCell>
        <mxCell id="n6d9y7SIBVnWGOxXG-Kv-556" value="Red candle" style="shape=partialRectangle;html=1;whiteSpace=wrap;connectable=0;fillColor=#fa6800;top=0;left=0;bottom=0;right=0;overflow=hidden;fontFamily=Roboto;fontSize=9;fontColor=#FFFFFF;strokeColor=#C73500;" vertex="1" parent="n6d9y7SIBVnWGOxXG-Kv-552">
          <mxGeometry x="180" width="70" height="20" as="geometry">
            <mxRectangle width="70" height="20" as="alternateBounds" />
          </mxGeometry>
        </mxCell>
        <mxCell id="n6d9y7SIBVnWGOxXG-Kv-557" value="RED" style="shape=partialRectangle;html=1;whiteSpace=wrap;connectable=0;fillColor=#fa6800;top=0;left=0;bottom=0;right=0;overflow=hidden;fontFamily=Roboto;fontSize=9;fontColor=#f5f4f4;strokeColor=#C73500;" vertex="1" parent="n6d9y7SIBVnWGOxXG-Kv-552">
          <mxGeometry x="250" width="80" height="20" as="geometry">
            <mxRectangle width="80" height="20" as="alternateBounds" />
          </mxGeometry>
        </mxCell>
        <mxCell id="n6d9y7SIBVnWGOxXG-Kv-558" value="LOW" style="shape=partialRectangle;html=1;whiteSpace=wrap;connectable=0;fillColor=#fa6800;top=0;left=0;bottom=0;right=0;overflow=hidden;fontFamily=Roboto;fontSize=9;fontColor=#FFFFFF;strokeColor=#C73500;" vertex="1" parent="n6d9y7SIBVnWGOxXG-Kv-552">
          <mxGeometry x="330" width="60" height="20" as="geometry">
            <mxRectangle width="60" height="20" as="alternateBounds" />
          </mxGeometry>
        </mxCell>
        <mxCell id="n6d9y7SIBVnWGOxXG-Kv-559" value="8819.9" style="shape=partialRectangle;html=1;whiteSpace=wrap;connectable=0;fillColor=none;top=0;left=0;bottom=0;right=0;overflow=hidden;fontFamily=Roboto;fontSize=9;fontColor=#000000;" vertex="1" parent="n6d9y7SIBVnWGOxXG-Kv-552">
          <mxGeometry x="390" width="60" height="20" as="geometry">
            <mxRectangle width="60" height="20" as="alternateBounds" />
          </mxGeometry>
        </mxCell>
        <mxCell id="n6d9y7SIBVnWGOxXG-Kv-560" value="3087.95" style="shape=partialRectangle;html=1;whiteSpace=wrap;connectable=0;fillColor=none;top=0;left=0;bottom=0;right=0;overflow=hidden;fontFamily=Roboto;fontSize=9;fontColor=#000000;" vertex="1" parent="n6d9y7SIBVnWGOxXG-Kv-552">
          <mxGeometry x="450" width="60" height="20" as="geometry">
            <mxRectangle width="60" height="20" as="alternateBounds" />
          </mxGeometry>
        </mxCell>
        <mxCell id="n6d9y7SIBVnWGOxXG-Kv-561" value="3040" style="shape=partialRectangle;html=1;whiteSpace=wrap;connectable=0;fillColor=none;top=0;left=0;bottom=0;right=0;overflow=hidden;fontFamily=Roboto;fontSize=9;fontColor=#000000;" vertex="1" parent="n6d9y7SIBVnWGOxXG-Kv-552">
          <mxGeometry x="510" width="60" height="20" as="geometry">
            <mxRectangle width="60" height="20" as="alternateBounds" />
          </mxGeometry>
        </mxCell>
        <mxCell id="n6d9y7SIBVnWGOxXG-Kv-562" value="3043.55" style="shape=partialRectangle;html=1;whiteSpace=wrap;connectable=0;fillColor=none;top=0;left=0;bottom=0;right=0;overflow=hidden;fontFamily=Roboto;fontSize=9;fontColor=#000000;" vertex="1" parent="n6d9y7SIBVnWGOxXG-Kv-552">
          <mxGeometry x="570" width="60" height="20" as="geometry">
            <mxRectangle width="60" height="20" as="alternateBounds" />
          </mxGeometry>
        </mxCell>
        <mxCell id="n6d9y7SIBVnWGOxXG-Kv-563" value="3254.6" style="shape=partialRectangle;html=1;whiteSpace=wrap;connectable=0;fillColor=none;top=0;left=0;bottom=0;right=0;overflow=hidden;fontFamily=Roboto;fontSize=9;fontColor=#000000;" vertex="1" parent="n6d9y7SIBVnWGOxXG-Kv-552">
          <mxGeometry x="630" width="59" height="20" as="geometry">
            <mxRectangle width="59" height="20" as="alternateBounds" />
          </mxGeometry>
        </mxCell>
        <mxCell id="n6d9y7SIBVnWGOxXG-Kv-564" value="0" style="shape=partialRectangle;html=1;whiteSpace=wrap;connectable=0;fillColor=none;top=0;left=0;bottom=0;right=0;overflow=hidden;fontFamily=Roboto;fontSize=9;fontColor=#000000;" vertex="1" parent="n6d9y7SIBVnWGOxXG-Kv-552">
          <mxGeometry x="689" width="61" height="20" as="geometry">
            <mxRectangle width="61" height="20" as="alternateBounds" />
          </mxGeometry>
        </mxCell>
        <mxCell id="n6d9y7SIBVnWGOxXG-Kv-565" value="3057.13" style="shape=partialRectangle;html=1;whiteSpace=wrap;connectable=0;fillColor=none;top=0;left=0;bottom=0;right=0;overflow=hidden;fontFamily=Roboto;fontSize=9;fontColor=#000000;" vertex="1" parent="n6d9y7SIBVnWGOxXG-Kv-552">
          <mxGeometry x="750" width="59" height="20" as="geometry">
            <mxRectangle width="59" height="20" as="alternateBounds" />
          </mxGeometry>
        </mxCell>
        <mxCell id="n6d9y7SIBVnWGOxXG-Kv-566" value="3074.54" style="shape=partialRectangle;html=1;whiteSpace=wrap;connectable=0;fillColor=none;top=0;left=0;bottom=0;right=0;overflow=hidden;fontFamily=Roboto;fontSize=9;fontColor=#000000;" vertex="1" parent="n6d9y7SIBVnWGOxXG-Kv-552">
          <mxGeometry x="809" width="61" height="20" as="geometry">
            <mxRectangle width="61" height="20" as="alternateBounds" />
          </mxGeometry>
        </mxCell>
        <mxCell id="n6d9y7SIBVnWGOxXG-Kv-567" value="3104.25" style="shape=partialRectangle;html=1;whiteSpace=wrap;connectable=0;fillColor=none;top=0;left=0;bottom=0;right=0;overflow=hidden;fontFamily=Roboto;fontSize=9;fontColor=#000000;" vertex="1" parent="n6d9y7SIBVnWGOxXG-Kv-552">
          <mxGeometry x="870" width="59" height="20" as="geometry">
            <mxRectangle width="59" height="20" as="alternateBounds" />
          </mxGeometry>
        </mxCell>
        <mxCell id="n6d9y7SIBVnWGOxXG-Kv-568" value="3026.58" style="shape=partialRectangle;html=1;whiteSpace=wrap;connectable=0;fillColor=none;top=0;left=0;bottom=0;right=0;overflow=hidden;fontFamily=Roboto;fontSize=9;fontColor=#000000;" vertex="1" parent="n6d9y7SIBVnWGOxXG-Kv-552">
          <mxGeometry x="929" width="61" height="20" as="geometry">
            <mxRectangle width="61" height="20" as="alternateBounds" />
          </mxGeometry>
        </mxCell>
        <mxCell id="n6d9y7SIBVnWGOxXG-Kv-569" value="3009.69" style="shape=partialRectangle;html=1;whiteSpace=wrap;connectable=0;fillColor=none;top=0;left=0;bottom=0;right=0;overflow=hidden;fontFamily=Roboto;fontSize=9;fontColor=#000000;" vertex="1" parent="n6d9y7SIBVnWGOxXG-Kv-552">
          <mxGeometry x="990" width="59" height="20" as="geometry">
            <mxRectangle width="59" height="20" as="alternateBounds" />
          </mxGeometry>
        </mxCell>
        <mxCell id="n6d9y7SIBVnWGOxXG-Kv-570" value="No" style="shape=partialRectangle;html=1;whiteSpace=wrap;connectable=0;fillColor=none;top=0;left=0;bottom=0;right=0;overflow=hidden;fontFamily=Roboto;fontSize=9;fontColor=#000000;" vertex="1" parent="n6d9y7SIBVnWGOxXG-Kv-552">
          <mxGeometry x="1049" width="61" height="20" as="geometry">
            <mxRectangle width="61" height="20" as="alternateBounds" />
          </mxGeometry>
        </mxCell>
        <mxCell id="n6d9y7SIBVnWGOxXG-Kv-571" value="Click Here" style="shape=partialRectangle;html=1;whiteSpace=wrap;connectable=0;fillColor=none;top=0;left=0;bottom=0;right=0;overflow=hidden;fontFamily=Roboto;fontSize=9;fontColor=#6666FF;fontStyle=4" vertex="1" parent="n6d9y7SIBVnWGOxXG-Kv-552">
          <mxGeometry x="1110" width="60" height="20" as="geometry">
            <mxRectangle width="60" height="20" as="alternateBounds" />
          </mxGeometry>
        </mxCell>
        <mxCell id="n6d9y7SIBVnWGOxXG-Kv-973" style="shape=tableRow;horizontal=0;startSize=0;swimlaneHead=0;swimlaneBody=0;top=0;left=0;bottom=0;right=0;collapsible=0;dropTarget=0;fillColor=none;points=[[0,0.5],[1,0.5]];portConstraint=eastwest;fontFamily=Roboto;fontSize=9;fontColor=#6666FF;" vertex="1" parent="200">
          <mxGeometry y="150" width="1170" height="20" as="geometry" />
        </mxCell>
        <mxCell id="n6d9y7SIBVnWGOxXG-Kv-974" value="NIFTY 50" style="shape=partialRectangle;html=1;whiteSpace=wrap;connectable=0;fillColor=none;top=0;left=0;bottom=0;right=0;overflow=hidden;fontFamily=Roboto;fontSize=9;fontColor=#000000;" vertex="1" parent="n6d9y7SIBVnWGOxXG-Kv-973">
          <mxGeometry width="60" height="20" as="geometry">
            <mxRectangle width="60" height="20" as="alternateBounds" />
          </mxGeometry>
        </mxCell>
        <mxCell id="n6d9y7SIBVnWGOxXG-Kv-975" value="7" style="shape=partialRectangle;html=1;whiteSpace=wrap;connectable=0;fillColor=none;top=0;left=0;bottom=0;right=0;overflow=hidden;fontFamily=Roboto;fontSize=9;fontColor=#000000;" vertex="1" parent="n6d9y7SIBVnWGOxXG-Kv-973">
          <mxGeometry x="60" width="30" height="20" as="geometry">
            <mxRectangle width="30" height="20" as="alternateBounds" />
          </mxGeometry>
        </mxCell>
        <mxCell id="n6d9y7SIBVnWGOxXG-Kv-976" value="BAJAJFINSV" style="shape=partialRectangle;html=1;whiteSpace=wrap;connectable=0;fillColor=none;top=0;left=0;bottom=0;right=0;overflow=hidden;fontFamily=Roboto;fontSize=9;fontColor=#000000;" vertex="1" parent="n6d9y7SIBVnWGOxXG-Kv-973">
          <mxGeometry x="90" width="90" height="20" as="geometry">
            <mxRectangle width="90" height="20" as="alternateBounds" />
          </mxGeometry>
        </mxCell>
        <mxCell id="n6d9y7SIBVnWGOxXG-Kv-977" style="shape=partialRectangle;html=1;whiteSpace=wrap;connectable=0;fillColor=none;top=0;left=0;bottom=0;right=0;overflow=hidden;fontFamily=Roboto;fontSize=9;fontColor=#FFFFFF;strokeColor=#C73500;" vertex="1" parent="n6d9y7SIBVnWGOxXG-Kv-973">
          <mxGeometry x="180" width="70" height="20" as="geometry">
            <mxRectangle width="70" height="20" as="alternateBounds" />
          </mxGeometry>
        </mxCell>
        <mxCell id="n6d9y7SIBVnWGOxXG-Kv-978" style="shape=partialRectangle;html=1;whiteSpace=wrap;connectable=0;fillColor=none;top=0;left=0;bottom=0;right=0;overflow=hidden;fontFamily=Roboto;fontSize=9;fontColor=#f5f4f4;strokeColor=#C73500;" vertex="1" parent="n6d9y7SIBVnWGOxXG-Kv-973">
          <mxGeometry x="250" width="80" height="20" as="geometry">
            <mxRectangle width="80" height="20" as="alternateBounds" />
          </mxGeometry>
        </mxCell>
        <mxCell id="n6d9y7SIBVnWGOxXG-Kv-979" style="shape=partialRectangle;html=1;whiteSpace=wrap;connectable=0;fillColor=none;top=0;left=0;bottom=0;right=0;overflow=hidden;fontFamily=Roboto;fontSize=9;fontColor=#FFFFFF;strokeColor=#C73500;" vertex="1" parent="n6d9y7SIBVnWGOxXG-Kv-973">
          <mxGeometry x="330" width="60" height="20" as="geometry">
            <mxRectangle width="60" height="20" as="alternateBounds" />
          </mxGeometry>
        </mxCell>
        <mxCell id="n6d9y7SIBVnWGOxXG-Kv-980" style="shape=partialRectangle;html=1;whiteSpace=wrap;connectable=0;fillColor=none;top=0;left=0;bottom=0;right=0;overflow=hidden;fontFamily=Roboto;fontSize=9;fontColor=#000000;" vertex="1" parent="n6d9y7SIBVnWGOxXG-Kv-973">
          <mxGeometry x="390" width="60" height="20" as="geometry">
            <mxRectangle width="60" height="20" as="alternateBounds" />
          </mxGeometry>
        </mxCell>
        <mxCell id="n6d9y7SIBVnWGOxXG-Kv-981" style="shape=partialRectangle;html=1;whiteSpace=wrap;connectable=0;fillColor=none;top=0;left=0;bottom=0;right=0;overflow=hidden;fontFamily=Roboto;fontSize=9;fontColor=#000000;" vertex="1" parent="n6d9y7SIBVnWGOxXG-Kv-973">
          <mxGeometry x="450" width="60" height="20" as="geometry">
            <mxRectangle width="60" height="20" as="alternateBounds" />
          </mxGeometry>
        </mxCell>
        <mxCell id="n6d9y7SIBVnWGOxXG-Kv-982" style="shape=partialRectangle;html=1;whiteSpace=wrap;connectable=0;fillColor=none;top=0;left=0;bottom=0;right=0;overflow=hidden;fontFamily=Roboto;fontSize=9;fontColor=#000000;" vertex="1" parent="n6d9y7SIBVnWGOxXG-Kv-973">
          <mxGeometry x="510" width="60" height="20" as="geometry">
            <mxRectangle width="60" height="20" as="alternateBounds" />
          </mxGeometry>
        </mxCell>
        <mxCell id="n6d9y7SIBVnWGOxXG-Kv-983" style="shape=partialRectangle;html=1;whiteSpace=wrap;connectable=0;fillColor=none;top=0;left=0;bottom=0;right=0;overflow=hidden;fontFamily=Roboto;fontSize=9;fontColor=#000000;" vertex="1" parent="n6d9y7SIBVnWGOxXG-Kv-973">
          <mxGeometry x="570" width="60" height="20" as="geometry">
            <mxRectangle width="60" height="20" as="alternateBounds" />
          </mxGeometry>
        </mxCell>
        <mxCell id="n6d9y7SIBVnWGOxXG-Kv-984" style="shape=partialRectangle;html=1;whiteSpace=wrap;connectable=0;fillColor=none;top=0;left=0;bottom=0;right=0;overflow=hidden;fontFamily=Roboto;fontSize=9;fontColor=#000000;" vertex="1" parent="n6d9y7SIBVnWGOxXG-Kv-973">
          <mxGeometry x="630" width="59" height="20" as="geometry">
            <mxRectangle width="59" height="20" as="alternateBounds" />
          </mxGeometry>
        </mxCell>
        <mxCell id="n6d9y7SIBVnWGOxXG-Kv-985" style="shape=partialRectangle;html=1;whiteSpace=wrap;connectable=0;fillColor=none;top=0;left=0;bottom=0;right=0;overflow=hidden;fontFamily=Roboto;fontSize=9;fontColor=#000000;" vertex="1" parent="n6d9y7SIBVnWGOxXG-Kv-973">
          <mxGeometry x="689" width="61" height="20" as="geometry">
            <mxRectangle width="61" height="20" as="alternateBounds" />
          </mxGeometry>
        </mxCell>
        <mxCell id="n6d9y7SIBVnWGOxXG-Kv-986" style="shape=partialRectangle;html=1;whiteSpace=wrap;connectable=0;fillColor=none;top=0;left=0;bottom=0;right=0;overflow=hidden;fontFamily=Roboto;fontSize=9;fontColor=#000000;" vertex="1" parent="n6d9y7SIBVnWGOxXG-Kv-973">
          <mxGeometry x="750" width="59" height="20" as="geometry">
            <mxRectangle width="59" height="20" as="alternateBounds" />
          </mxGeometry>
        </mxCell>
        <mxCell id="n6d9y7SIBVnWGOxXG-Kv-987" style="shape=partialRectangle;html=1;whiteSpace=wrap;connectable=0;fillColor=none;top=0;left=0;bottom=0;right=0;overflow=hidden;fontFamily=Roboto;fontSize=9;fontColor=#000000;" vertex="1" parent="n6d9y7SIBVnWGOxXG-Kv-973">
          <mxGeometry x="809" width="61" height="20" as="geometry">
            <mxRectangle width="61" height="20" as="alternateBounds" />
          </mxGeometry>
        </mxCell>
        <mxCell id="n6d9y7SIBVnWGOxXG-Kv-988" style="shape=partialRectangle;html=1;whiteSpace=wrap;connectable=0;fillColor=none;top=0;left=0;bottom=0;right=0;overflow=hidden;fontFamily=Roboto;fontSize=9;fontColor=#000000;" vertex="1" parent="n6d9y7SIBVnWGOxXG-Kv-973">
          <mxGeometry x="870" width="59" height="20" as="geometry">
            <mxRectangle width="59" height="20" as="alternateBounds" />
          </mxGeometry>
        </mxCell>
        <mxCell id="n6d9y7SIBVnWGOxXG-Kv-989" style="shape=partialRectangle;html=1;whiteSpace=wrap;connectable=0;fillColor=none;top=0;left=0;bottom=0;right=0;overflow=hidden;fontFamily=Roboto;fontSize=9;fontColor=#000000;" vertex="1" parent="n6d9y7SIBVnWGOxXG-Kv-973">
          <mxGeometry x="929" width="61" height="20" as="geometry">
            <mxRectangle width="61" height="20" as="alternateBounds" />
          </mxGeometry>
        </mxCell>
        <mxCell id="n6d9y7SIBVnWGOxXG-Kv-990" style="shape=partialRectangle;html=1;whiteSpace=wrap;connectable=0;fillColor=none;top=0;left=0;bottom=0;right=0;overflow=hidden;fontFamily=Roboto;fontSize=9;fontColor=#000000;" vertex="1" parent="n6d9y7SIBVnWGOxXG-Kv-973">
          <mxGeometry x="990" width="59" height="20" as="geometry">
            <mxRectangle width="59" height="20" as="alternateBounds" />
          </mxGeometry>
        </mxCell>
        <mxCell id="n6d9y7SIBVnWGOxXG-Kv-991" style="shape=partialRectangle;html=1;whiteSpace=wrap;connectable=0;fillColor=none;top=0;left=0;bottom=0;right=0;overflow=hidden;fontFamily=Roboto;fontSize=9;fontColor=#000000;" vertex="1" parent="n6d9y7SIBVnWGOxXG-Kv-973">
          <mxGeometry x="1049" width="61" height="20" as="geometry">
            <mxRectangle width="61" height="20" as="alternateBounds" />
          </mxGeometry>
        </mxCell>
        <mxCell id="n6d9y7SIBVnWGOxXG-Kv-992" style="shape=partialRectangle;html=1;whiteSpace=wrap;connectable=0;fillColor=none;top=0;left=0;bottom=0;right=0;overflow=hidden;fontFamily=Roboto;fontSize=9;fontColor=#6666FF;fontStyle=4" vertex="1" parent="n6d9y7SIBVnWGOxXG-Kv-973">
          <mxGeometry x="1110" width="60" height="20" as="geometry">
            <mxRectangle width="60" height="20" as="alternateBounds" />
          </mxGeometry>
        </mxCell>
        <mxCell id="n6d9y7SIBVnWGOxXG-Kv-1073" style="shape=tableRow;horizontal=0;startSize=0;swimlaneHead=0;swimlaneBody=0;top=0;left=0;bottom=0;right=0;collapsible=0;dropTarget=0;fillColor=none;points=[[0,0.5],[1,0.5]];portConstraint=eastwest;fontFamily=Roboto;fontSize=9;fontColor=#6666FF;" vertex="1" parent="200">
          <mxGeometry y="170" width="1170" height="20" as="geometry" />
        </mxCell>
        <mxCell id="n6d9y7SIBVnWGOxXG-Kv-1074" value="NIFTY 50" style="shape=partialRectangle;html=1;whiteSpace=wrap;connectable=0;fillColor=none;top=0;left=0;bottom=0;right=0;overflow=hidden;fontFamily=Roboto;fontSize=9;fontColor=#000000;" vertex="1" parent="n6d9y7SIBVnWGOxXG-Kv-1073">
          <mxGeometry width="60" height="20" as="geometry">
            <mxRectangle width="60" height="20" as="alternateBounds" />
          </mxGeometry>
        </mxCell>
        <mxCell id="n6d9y7SIBVnWGOxXG-Kv-1075" value="8" style="shape=partialRectangle;html=1;whiteSpace=wrap;connectable=0;fillColor=none;top=0;left=0;bottom=0;right=0;overflow=hidden;fontFamily=Roboto;fontSize=9;fontColor=#000000;" vertex="1" parent="n6d9y7SIBVnWGOxXG-Kv-1073">
          <mxGeometry x="60" width="30" height="20" as="geometry">
            <mxRectangle width="30" height="20" as="alternateBounds" />
          </mxGeometry>
        </mxCell>
        <mxCell id="n6d9y7SIBVnWGOxXG-Kv-1076" value="BAJFINANCE" style="shape=partialRectangle;html=1;whiteSpace=wrap;connectable=0;fillColor=none;top=0;left=0;bottom=0;right=0;overflow=hidden;fontFamily=Roboto;fontSize=9;fontColor=#000000;" vertex="1" parent="n6d9y7SIBVnWGOxXG-Kv-1073">
          <mxGeometry x="90" width="90" height="20" as="geometry">
            <mxRectangle width="90" height="20" as="alternateBounds" />
          </mxGeometry>
        </mxCell>
        <mxCell id="n6d9y7SIBVnWGOxXG-Kv-1077" style="shape=partialRectangle;html=1;whiteSpace=wrap;connectable=0;fillColor=none;top=0;left=0;bottom=0;right=0;overflow=hidden;fontFamily=Roboto;fontSize=9;fontColor=#FFFFFF;strokeColor=#C73500;" vertex="1" parent="n6d9y7SIBVnWGOxXG-Kv-1073">
          <mxGeometry x="180" width="70" height="20" as="geometry">
            <mxRectangle width="70" height="20" as="alternateBounds" />
          </mxGeometry>
        </mxCell>
        <mxCell id="n6d9y7SIBVnWGOxXG-Kv-1078" style="shape=partialRectangle;html=1;whiteSpace=wrap;connectable=0;fillColor=none;top=0;left=0;bottom=0;right=0;overflow=hidden;fontFamily=Roboto;fontSize=9;fontColor=#f5f4f4;strokeColor=#C73500;" vertex="1" parent="n6d9y7SIBVnWGOxXG-Kv-1073">
          <mxGeometry x="250" width="80" height="20" as="geometry">
            <mxRectangle width="80" height="20" as="alternateBounds" />
          </mxGeometry>
        </mxCell>
        <mxCell id="n6d9y7SIBVnWGOxXG-Kv-1079" style="shape=partialRectangle;html=1;whiteSpace=wrap;connectable=0;fillColor=none;top=0;left=0;bottom=0;right=0;overflow=hidden;fontFamily=Roboto;fontSize=9;fontColor=#FFFFFF;strokeColor=#C73500;" vertex="1" parent="n6d9y7SIBVnWGOxXG-Kv-1073">
          <mxGeometry x="330" width="60" height="20" as="geometry">
            <mxRectangle width="60" height="20" as="alternateBounds" />
          </mxGeometry>
        </mxCell>
        <mxCell id="n6d9y7SIBVnWGOxXG-Kv-1080" style="shape=partialRectangle;html=1;whiteSpace=wrap;connectable=0;fillColor=none;top=0;left=0;bottom=0;right=0;overflow=hidden;fontFamily=Roboto;fontSize=9;fontColor=#000000;" vertex="1" parent="n6d9y7SIBVnWGOxXG-Kv-1073">
          <mxGeometry x="390" width="60" height="20" as="geometry">
            <mxRectangle width="60" height="20" as="alternateBounds" />
          </mxGeometry>
        </mxCell>
        <mxCell id="n6d9y7SIBVnWGOxXG-Kv-1081" style="shape=partialRectangle;html=1;whiteSpace=wrap;connectable=0;fillColor=none;top=0;left=0;bottom=0;right=0;overflow=hidden;fontFamily=Roboto;fontSize=9;fontColor=#000000;" vertex="1" parent="n6d9y7SIBVnWGOxXG-Kv-1073">
          <mxGeometry x="450" width="60" height="20" as="geometry">
            <mxRectangle width="60" height="20" as="alternateBounds" />
          </mxGeometry>
        </mxCell>
        <mxCell id="n6d9y7SIBVnWGOxXG-Kv-1082" style="shape=partialRectangle;html=1;whiteSpace=wrap;connectable=0;fillColor=none;top=0;left=0;bottom=0;right=0;overflow=hidden;fontFamily=Roboto;fontSize=9;fontColor=#000000;" vertex="1" parent="n6d9y7SIBVnWGOxXG-Kv-1073">
          <mxGeometry x="510" width="60" height="20" as="geometry">
            <mxRectangle width="60" height="20" as="alternateBounds" />
          </mxGeometry>
        </mxCell>
        <mxCell id="n6d9y7SIBVnWGOxXG-Kv-1083" style="shape=partialRectangle;html=1;whiteSpace=wrap;connectable=0;fillColor=none;top=0;left=0;bottom=0;right=0;overflow=hidden;fontFamily=Roboto;fontSize=9;fontColor=#000000;" vertex="1" parent="n6d9y7SIBVnWGOxXG-Kv-1073">
          <mxGeometry x="570" width="60" height="20" as="geometry">
            <mxRectangle width="60" height="20" as="alternateBounds" />
          </mxGeometry>
        </mxCell>
        <mxCell id="n6d9y7SIBVnWGOxXG-Kv-1084" style="shape=partialRectangle;html=1;whiteSpace=wrap;connectable=0;fillColor=none;top=0;left=0;bottom=0;right=0;overflow=hidden;fontFamily=Roboto;fontSize=9;fontColor=#000000;" vertex="1" parent="n6d9y7SIBVnWGOxXG-Kv-1073">
          <mxGeometry x="630" width="59" height="20" as="geometry">
            <mxRectangle width="59" height="20" as="alternateBounds" />
          </mxGeometry>
        </mxCell>
        <mxCell id="n6d9y7SIBVnWGOxXG-Kv-1085" style="shape=partialRectangle;html=1;whiteSpace=wrap;connectable=0;fillColor=none;top=0;left=0;bottom=0;right=0;overflow=hidden;fontFamily=Roboto;fontSize=9;fontColor=#000000;" vertex="1" parent="n6d9y7SIBVnWGOxXG-Kv-1073">
          <mxGeometry x="689" width="61" height="20" as="geometry">
            <mxRectangle width="61" height="20" as="alternateBounds" />
          </mxGeometry>
        </mxCell>
        <mxCell id="n6d9y7SIBVnWGOxXG-Kv-1086" style="shape=partialRectangle;html=1;whiteSpace=wrap;connectable=0;fillColor=none;top=0;left=0;bottom=0;right=0;overflow=hidden;fontFamily=Roboto;fontSize=9;fontColor=#000000;" vertex="1" parent="n6d9y7SIBVnWGOxXG-Kv-1073">
          <mxGeometry x="750" width="59" height="20" as="geometry">
            <mxRectangle width="59" height="20" as="alternateBounds" />
          </mxGeometry>
        </mxCell>
        <mxCell id="n6d9y7SIBVnWGOxXG-Kv-1087" style="shape=partialRectangle;html=1;whiteSpace=wrap;connectable=0;fillColor=none;top=0;left=0;bottom=0;right=0;overflow=hidden;fontFamily=Roboto;fontSize=9;fontColor=#000000;" vertex="1" parent="n6d9y7SIBVnWGOxXG-Kv-1073">
          <mxGeometry x="809" width="61" height="20" as="geometry">
            <mxRectangle width="61" height="20" as="alternateBounds" />
          </mxGeometry>
        </mxCell>
        <mxCell id="n6d9y7SIBVnWGOxXG-Kv-1088" style="shape=partialRectangle;html=1;whiteSpace=wrap;connectable=0;fillColor=none;top=0;left=0;bottom=0;right=0;overflow=hidden;fontFamily=Roboto;fontSize=9;fontColor=#000000;" vertex="1" parent="n6d9y7SIBVnWGOxXG-Kv-1073">
          <mxGeometry x="870" width="59" height="20" as="geometry">
            <mxRectangle width="59" height="20" as="alternateBounds" />
          </mxGeometry>
        </mxCell>
        <mxCell id="n6d9y7SIBVnWGOxXG-Kv-1089" style="shape=partialRectangle;html=1;whiteSpace=wrap;connectable=0;fillColor=none;top=0;left=0;bottom=0;right=0;overflow=hidden;fontFamily=Roboto;fontSize=9;fontColor=#000000;" vertex="1" parent="n6d9y7SIBVnWGOxXG-Kv-1073">
          <mxGeometry x="929" width="61" height="20" as="geometry">
            <mxRectangle width="61" height="20" as="alternateBounds" />
          </mxGeometry>
        </mxCell>
        <mxCell id="n6d9y7SIBVnWGOxXG-Kv-1090" style="shape=partialRectangle;html=1;whiteSpace=wrap;connectable=0;fillColor=none;top=0;left=0;bottom=0;right=0;overflow=hidden;fontFamily=Roboto;fontSize=9;fontColor=#000000;" vertex="1" parent="n6d9y7SIBVnWGOxXG-Kv-1073">
          <mxGeometry x="990" width="59" height="20" as="geometry">
            <mxRectangle width="59" height="20" as="alternateBounds" />
          </mxGeometry>
        </mxCell>
        <mxCell id="n6d9y7SIBVnWGOxXG-Kv-1091" style="shape=partialRectangle;html=1;whiteSpace=wrap;connectable=0;fillColor=none;top=0;left=0;bottom=0;right=0;overflow=hidden;fontFamily=Roboto;fontSize=9;fontColor=#000000;" vertex="1" parent="n6d9y7SIBVnWGOxXG-Kv-1073">
          <mxGeometry x="1049" width="61" height="20" as="geometry">
            <mxRectangle width="61" height="20" as="alternateBounds" />
          </mxGeometry>
        </mxCell>
        <mxCell id="n6d9y7SIBVnWGOxXG-Kv-1092" style="shape=partialRectangle;html=1;whiteSpace=wrap;connectable=0;fillColor=none;top=0;left=0;bottom=0;right=0;overflow=hidden;fontFamily=Roboto;fontSize=9;fontColor=#6666FF;fontStyle=4" vertex="1" parent="n6d9y7SIBVnWGOxXG-Kv-1073">
          <mxGeometry x="1110" width="60" height="20" as="geometry">
            <mxRectangle width="60" height="20" as="alternateBounds" />
          </mxGeometry>
        </mxCell>
        <mxCell id="n6d9y7SIBVnWGOxXG-Kv-1053" style="shape=tableRow;horizontal=0;startSize=0;swimlaneHead=0;swimlaneBody=0;top=0;left=0;bottom=0;right=0;collapsible=0;dropTarget=0;fillColor=none;points=[[0,0.5],[1,0.5]];portConstraint=eastwest;fontFamily=Roboto;fontSize=9;fontColor=#6666FF;" vertex="1" parent="200">
          <mxGeometry y="190" width="1170" height="20" as="geometry" />
        </mxCell>
        <mxCell id="n6d9y7SIBVnWGOxXG-Kv-1054" value="NIFTY 50" style="shape=partialRectangle;html=1;whiteSpace=wrap;connectable=0;fillColor=none;top=0;left=0;bottom=0;right=0;overflow=hidden;fontFamily=Roboto;fontSize=9;fontColor=#000000;" vertex="1" parent="n6d9y7SIBVnWGOxXG-Kv-1053">
          <mxGeometry width="60" height="20" as="geometry">
            <mxRectangle width="60" height="20" as="alternateBounds" />
          </mxGeometry>
        </mxCell>
        <mxCell id="n6d9y7SIBVnWGOxXG-Kv-1055" value="9" style="shape=partialRectangle;html=1;whiteSpace=wrap;connectable=0;fillColor=none;top=0;left=0;bottom=0;right=0;overflow=hidden;fontFamily=Roboto;fontSize=9;fontColor=#000000;" vertex="1" parent="n6d9y7SIBVnWGOxXG-Kv-1053">
          <mxGeometry x="60" width="30" height="20" as="geometry">
            <mxRectangle width="30" height="20" as="alternateBounds" />
          </mxGeometry>
        </mxCell>
        <mxCell id="n6d9y7SIBVnWGOxXG-Kv-1056" value="BHARTIARTL" style="shape=partialRectangle;html=1;whiteSpace=wrap;connectable=0;fillColor=none;top=0;left=0;bottom=0;right=0;overflow=hidden;fontFamily=Roboto;fontSize=9;fontColor=#000000;" vertex="1" parent="n6d9y7SIBVnWGOxXG-Kv-1053">
          <mxGeometry x="90" width="90" height="20" as="geometry">
            <mxRectangle width="90" height="20" as="alternateBounds" />
          </mxGeometry>
        </mxCell>
        <mxCell id="n6d9y7SIBVnWGOxXG-Kv-1057" style="shape=partialRectangle;html=1;whiteSpace=wrap;connectable=0;fillColor=none;top=0;left=0;bottom=0;right=0;overflow=hidden;fontFamily=Roboto;fontSize=9;fontColor=#FFFFFF;strokeColor=#C73500;" vertex="1" parent="n6d9y7SIBVnWGOxXG-Kv-1053">
          <mxGeometry x="180" width="70" height="20" as="geometry">
            <mxRectangle width="70" height="20" as="alternateBounds" />
          </mxGeometry>
        </mxCell>
        <mxCell id="n6d9y7SIBVnWGOxXG-Kv-1058" style="shape=partialRectangle;html=1;whiteSpace=wrap;connectable=0;fillColor=none;top=0;left=0;bottom=0;right=0;overflow=hidden;fontFamily=Roboto;fontSize=9;fontColor=#f5f4f4;strokeColor=#C73500;" vertex="1" parent="n6d9y7SIBVnWGOxXG-Kv-1053">
          <mxGeometry x="250" width="80" height="20" as="geometry">
            <mxRectangle width="80" height="20" as="alternateBounds" />
          </mxGeometry>
        </mxCell>
        <mxCell id="n6d9y7SIBVnWGOxXG-Kv-1059" style="shape=partialRectangle;html=1;whiteSpace=wrap;connectable=0;fillColor=none;top=0;left=0;bottom=0;right=0;overflow=hidden;fontFamily=Roboto;fontSize=9;fontColor=#FFFFFF;strokeColor=#C73500;" vertex="1" parent="n6d9y7SIBVnWGOxXG-Kv-1053">
          <mxGeometry x="330" width="60" height="20" as="geometry">
            <mxRectangle width="60" height="20" as="alternateBounds" />
          </mxGeometry>
        </mxCell>
        <mxCell id="n6d9y7SIBVnWGOxXG-Kv-1060" style="shape=partialRectangle;html=1;whiteSpace=wrap;connectable=0;fillColor=none;top=0;left=0;bottom=0;right=0;overflow=hidden;fontFamily=Roboto;fontSize=9;fontColor=#000000;" vertex="1" parent="n6d9y7SIBVnWGOxXG-Kv-1053">
          <mxGeometry x="390" width="60" height="20" as="geometry">
            <mxRectangle width="60" height="20" as="alternateBounds" />
          </mxGeometry>
        </mxCell>
        <mxCell id="n6d9y7SIBVnWGOxXG-Kv-1061" style="shape=partialRectangle;html=1;whiteSpace=wrap;connectable=0;fillColor=none;top=0;left=0;bottom=0;right=0;overflow=hidden;fontFamily=Roboto;fontSize=9;fontColor=#000000;" vertex="1" parent="n6d9y7SIBVnWGOxXG-Kv-1053">
          <mxGeometry x="450" width="60" height="20" as="geometry">
            <mxRectangle width="60" height="20" as="alternateBounds" />
          </mxGeometry>
        </mxCell>
        <mxCell id="n6d9y7SIBVnWGOxXG-Kv-1062" style="shape=partialRectangle;html=1;whiteSpace=wrap;connectable=0;fillColor=none;top=0;left=0;bottom=0;right=0;overflow=hidden;fontFamily=Roboto;fontSize=9;fontColor=#000000;" vertex="1" parent="n6d9y7SIBVnWGOxXG-Kv-1053">
          <mxGeometry x="510" width="60" height="20" as="geometry">
            <mxRectangle width="60" height="20" as="alternateBounds" />
          </mxGeometry>
        </mxCell>
        <mxCell id="n6d9y7SIBVnWGOxXG-Kv-1063" style="shape=partialRectangle;html=1;whiteSpace=wrap;connectable=0;fillColor=none;top=0;left=0;bottom=0;right=0;overflow=hidden;fontFamily=Roboto;fontSize=9;fontColor=#000000;" vertex="1" parent="n6d9y7SIBVnWGOxXG-Kv-1053">
          <mxGeometry x="570" width="60" height="20" as="geometry">
            <mxRectangle width="60" height="20" as="alternateBounds" />
          </mxGeometry>
        </mxCell>
        <mxCell id="n6d9y7SIBVnWGOxXG-Kv-1064" style="shape=partialRectangle;html=1;whiteSpace=wrap;connectable=0;fillColor=none;top=0;left=0;bottom=0;right=0;overflow=hidden;fontFamily=Roboto;fontSize=9;fontColor=#000000;" vertex="1" parent="n6d9y7SIBVnWGOxXG-Kv-1053">
          <mxGeometry x="630" width="59" height="20" as="geometry">
            <mxRectangle width="59" height="20" as="alternateBounds" />
          </mxGeometry>
        </mxCell>
        <mxCell id="n6d9y7SIBVnWGOxXG-Kv-1065" style="shape=partialRectangle;html=1;whiteSpace=wrap;connectable=0;fillColor=none;top=0;left=0;bottom=0;right=0;overflow=hidden;fontFamily=Roboto;fontSize=9;fontColor=#000000;" vertex="1" parent="n6d9y7SIBVnWGOxXG-Kv-1053">
          <mxGeometry x="689" width="61" height="20" as="geometry">
            <mxRectangle width="61" height="20" as="alternateBounds" />
          </mxGeometry>
        </mxCell>
        <mxCell id="n6d9y7SIBVnWGOxXG-Kv-1066" style="shape=partialRectangle;html=1;whiteSpace=wrap;connectable=0;fillColor=none;top=0;left=0;bottom=0;right=0;overflow=hidden;fontFamily=Roboto;fontSize=9;fontColor=#000000;" vertex="1" parent="n6d9y7SIBVnWGOxXG-Kv-1053">
          <mxGeometry x="750" width="59" height="20" as="geometry">
            <mxRectangle width="59" height="20" as="alternateBounds" />
          </mxGeometry>
        </mxCell>
        <mxCell id="n6d9y7SIBVnWGOxXG-Kv-1067" style="shape=partialRectangle;html=1;whiteSpace=wrap;connectable=0;fillColor=none;top=0;left=0;bottom=0;right=0;overflow=hidden;fontFamily=Roboto;fontSize=9;fontColor=#000000;" vertex="1" parent="n6d9y7SIBVnWGOxXG-Kv-1053">
          <mxGeometry x="809" width="61" height="20" as="geometry">
            <mxRectangle width="61" height="20" as="alternateBounds" />
          </mxGeometry>
        </mxCell>
        <mxCell id="n6d9y7SIBVnWGOxXG-Kv-1068" style="shape=partialRectangle;html=1;whiteSpace=wrap;connectable=0;fillColor=none;top=0;left=0;bottom=0;right=0;overflow=hidden;fontFamily=Roboto;fontSize=9;fontColor=#000000;" vertex="1" parent="n6d9y7SIBVnWGOxXG-Kv-1053">
          <mxGeometry x="870" width="59" height="20" as="geometry">
            <mxRectangle width="59" height="20" as="alternateBounds" />
          </mxGeometry>
        </mxCell>
        <mxCell id="n6d9y7SIBVnWGOxXG-Kv-1069" style="shape=partialRectangle;html=1;whiteSpace=wrap;connectable=0;fillColor=none;top=0;left=0;bottom=0;right=0;overflow=hidden;fontFamily=Roboto;fontSize=9;fontColor=#000000;" vertex="1" parent="n6d9y7SIBVnWGOxXG-Kv-1053">
          <mxGeometry x="929" width="61" height="20" as="geometry">
            <mxRectangle width="61" height="20" as="alternateBounds" />
          </mxGeometry>
        </mxCell>
        <mxCell id="n6d9y7SIBVnWGOxXG-Kv-1070" style="shape=partialRectangle;html=1;whiteSpace=wrap;connectable=0;fillColor=none;top=0;left=0;bottom=0;right=0;overflow=hidden;fontFamily=Roboto;fontSize=9;fontColor=#000000;" vertex="1" parent="n6d9y7SIBVnWGOxXG-Kv-1053">
          <mxGeometry x="990" width="59" height="20" as="geometry">
            <mxRectangle width="59" height="20" as="alternateBounds" />
          </mxGeometry>
        </mxCell>
        <mxCell id="n6d9y7SIBVnWGOxXG-Kv-1071" style="shape=partialRectangle;html=1;whiteSpace=wrap;connectable=0;fillColor=none;top=0;left=0;bottom=0;right=0;overflow=hidden;fontFamily=Roboto;fontSize=9;fontColor=#000000;" vertex="1" parent="n6d9y7SIBVnWGOxXG-Kv-1053">
          <mxGeometry x="1049" width="61" height="20" as="geometry">
            <mxRectangle width="61" height="20" as="alternateBounds" />
          </mxGeometry>
        </mxCell>
        <mxCell id="n6d9y7SIBVnWGOxXG-Kv-1072" style="shape=partialRectangle;html=1;whiteSpace=wrap;connectable=0;fillColor=none;top=0;left=0;bottom=0;right=0;overflow=hidden;fontFamily=Roboto;fontSize=9;fontColor=#6666FF;fontStyle=4" vertex="1" parent="n6d9y7SIBVnWGOxXG-Kv-1053">
          <mxGeometry x="1110" width="60" height="20" as="geometry">
            <mxRectangle width="60" height="20" as="alternateBounds" />
          </mxGeometry>
        </mxCell>
        <mxCell id="n6d9y7SIBVnWGOxXG-Kv-1033" style="shape=tableRow;horizontal=0;startSize=0;swimlaneHead=0;swimlaneBody=0;top=0;left=0;bottom=0;right=0;collapsible=0;dropTarget=0;fillColor=none;points=[[0,0.5],[1,0.5]];portConstraint=eastwest;fontFamily=Roboto;fontSize=9;fontColor=#6666FF;" vertex="1" parent="200">
          <mxGeometry y="210" width="1170" height="20" as="geometry" />
        </mxCell>
        <mxCell id="n6d9y7SIBVnWGOxXG-Kv-1034" value="NIFTY 50" style="shape=partialRectangle;html=1;whiteSpace=wrap;connectable=0;fillColor=none;top=0;left=0;bottom=0;right=0;overflow=hidden;fontFamily=Roboto;fontSize=9;fontColor=#000000;" vertex="1" parent="n6d9y7SIBVnWGOxXG-Kv-1033">
          <mxGeometry width="60" height="20" as="geometry">
            <mxRectangle width="60" height="20" as="alternateBounds" />
          </mxGeometry>
        </mxCell>
        <mxCell id="n6d9y7SIBVnWGOxXG-Kv-1035" value="10" style="shape=partialRectangle;html=1;whiteSpace=wrap;connectable=0;fillColor=none;top=0;left=0;bottom=0;right=0;overflow=hidden;fontFamily=Roboto;fontSize=9;fontColor=#000000;" vertex="1" parent="n6d9y7SIBVnWGOxXG-Kv-1033">
          <mxGeometry x="60" width="30" height="20" as="geometry">
            <mxRectangle width="30" height="20" as="alternateBounds" />
          </mxGeometry>
        </mxCell>
        <mxCell id="n6d9y7SIBVnWGOxXG-Kv-1036" value="BPCL" style="shape=partialRectangle;html=1;whiteSpace=wrap;connectable=0;fillColor=none;top=0;left=0;bottom=0;right=0;overflow=hidden;fontFamily=Roboto;fontSize=9;fontColor=#000000;" vertex="1" parent="n6d9y7SIBVnWGOxXG-Kv-1033">
          <mxGeometry x="90" width="90" height="20" as="geometry">
            <mxRectangle width="90" height="20" as="alternateBounds" />
          </mxGeometry>
        </mxCell>
        <mxCell id="n6d9y7SIBVnWGOxXG-Kv-1037" style="shape=partialRectangle;html=1;whiteSpace=wrap;connectable=0;fillColor=none;top=0;left=0;bottom=0;right=0;overflow=hidden;fontFamily=Roboto;fontSize=9;fontColor=#FFFFFF;strokeColor=#C73500;" vertex="1" parent="n6d9y7SIBVnWGOxXG-Kv-1033">
          <mxGeometry x="180" width="70" height="20" as="geometry">
            <mxRectangle width="70" height="20" as="alternateBounds" />
          </mxGeometry>
        </mxCell>
        <mxCell id="n6d9y7SIBVnWGOxXG-Kv-1038" style="shape=partialRectangle;html=1;whiteSpace=wrap;connectable=0;fillColor=none;top=0;left=0;bottom=0;right=0;overflow=hidden;fontFamily=Roboto;fontSize=9;fontColor=#f5f4f4;strokeColor=#C73500;" vertex="1" parent="n6d9y7SIBVnWGOxXG-Kv-1033">
          <mxGeometry x="250" width="80" height="20" as="geometry">
            <mxRectangle width="80" height="20" as="alternateBounds" />
          </mxGeometry>
        </mxCell>
        <mxCell id="n6d9y7SIBVnWGOxXG-Kv-1039" style="shape=partialRectangle;html=1;whiteSpace=wrap;connectable=0;fillColor=none;top=0;left=0;bottom=0;right=0;overflow=hidden;fontFamily=Roboto;fontSize=9;fontColor=#FFFFFF;strokeColor=#C73500;" vertex="1" parent="n6d9y7SIBVnWGOxXG-Kv-1033">
          <mxGeometry x="330" width="60" height="20" as="geometry">
            <mxRectangle width="60" height="20" as="alternateBounds" />
          </mxGeometry>
        </mxCell>
        <mxCell id="n6d9y7SIBVnWGOxXG-Kv-1040" style="shape=partialRectangle;html=1;whiteSpace=wrap;connectable=0;fillColor=none;top=0;left=0;bottom=0;right=0;overflow=hidden;fontFamily=Roboto;fontSize=9;fontColor=#000000;" vertex="1" parent="n6d9y7SIBVnWGOxXG-Kv-1033">
          <mxGeometry x="390" width="60" height="20" as="geometry">
            <mxRectangle width="60" height="20" as="alternateBounds" />
          </mxGeometry>
        </mxCell>
        <mxCell id="n6d9y7SIBVnWGOxXG-Kv-1041" style="shape=partialRectangle;html=1;whiteSpace=wrap;connectable=0;fillColor=none;top=0;left=0;bottom=0;right=0;overflow=hidden;fontFamily=Roboto;fontSize=9;fontColor=#000000;" vertex="1" parent="n6d9y7SIBVnWGOxXG-Kv-1033">
          <mxGeometry x="450" width="60" height="20" as="geometry">
            <mxRectangle width="60" height="20" as="alternateBounds" />
          </mxGeometry>
        </mxCell>
        <mxCell id="n6d9y7SIBVnWGOxXG-Kv-1042" style="shape=partialRectangle;html=1;whiteSpace=wrap;connectable=0;fillColor=none;top=0;left=0;bottom=0;right=0;overflow=hidden;fontFamily=Roboto;fontSize=9;fontColor=#000000;" vertex="1" parent="n6d9y7SIBVnWGOxXG-Kv-1033">
          <mxGeometry x="510" width="60" height="20" as="geometry">
            <mxRectangle width="60" height="20" as="alternateBounds" />
          </mxGeometry>
        </mxCell>
        <mxCell id="n6d9y7SIBVnWGOxXG-Kv-1043" style="shape=partialRectangle;html=1;whiteSpace=wrap;connectable=0;fillColor=none;top=0;left=0;bottom=0;right=0;overflow=hidden;fontFamily=Roboto;fontSize=9;fontColor=#000000;" vertex="1" parent="n6d9y7SIBVnWGOxXG-Kv-1033">
          <mxGeometry x="570" width="60" height="20" as="geometry">
            <mxRectangle width="60" height="20" as="alternateBounds" />
          </mxGeometry>
        </mxCell>
        <mxCell id="n6d9y7SIBVnWGOxXG-Kv-1044" style="shape=partialRectangle;html=1;whiteSpace=wrap;connectable=0;fillColor=none;top=0;left=0;bottom=0;right=0;overflow=hidden;fontFamily=Roboto;fontSize=9;fontColor=#000000;" vertex="1" parent="n6d9y7SIBVnWGOxXG-Kv-1033">
          <mxGeometry x="630" width="59" height="20" as="geometry">
            <mxRectangle width="59" height="20" as="alternateBounds" />
          </mxGeometry>
        </mxCell>
        <mxCell id="n6d9y7SIBVnWGOxXG-Kv-1045" style="shape=partialRectangle;html=1;whiteSpace=wrap;connectable=0;fillColor=none;top=0;left=0;bottom=0;right=0;overflow=hidden;fontFamily=Roboto;fontSize=9;fontColor=#000000;" vertex="1" parent="n6d9y7SIBVnWGOxXG-Kv-1033">
          <mxGeometry x="689" width="61" height="20" as="geometry">
            <mxRectangle width="61" height="20" as="alternateBounds" />
          </mxGeometry>
        </mxCell>
        <mxCell id="n6d9y7SIBVnWGOxXG-Kv-1046" style="shape=partialRectangle;html=1;whiteSpace=wrap;connectable=0;fillColor=none;top=0;left=0;bottom=0;right=0;overflow=hidden;fontFamily=Roboto;fontSize=9;fontColor=#000000;" vertex="1" parent="n6d9y7SIBVnWGOxXG-Kv-1033">
          <mxGeometry x="750" width="59" height="20" as="geometry">
            <mxRectangle width="59" height="20" as="alternateBounds" />
          </mxGeometry>
        </mxCell>
        <mxCell id="n6d9y7SIBVnWGOxXG-Kv-1047" style="shape=partialRectangle;html=1;whiteSpace=wrap;connectable=0;fillColor=none;top=0;left=0;bottom=0;right=0;overflow=hidden;fontFamily=Roboto;fontSize=9;fontColor=#000000;" vertex="1" parent="n6d9y7SIBVnWGOxXG-Kv-1033">
          <mxGeometry x="809" width="61" height="20" as="geometry">
            <mxRectangle width="61" height="20" as="alternateBounds" />
          </mxGeometry>
        </mxCell>
        <mxCell id="n6d9y7SIBVnWGOxXG-Kv-1048" style="shape=partialRectangle;html=1;whiteSpace=wrap;connectable=0;fillColor=none;top=0;left=0;bottom=0;right=0;overflow=hidden;fontFamily=Roboto;fontSize=9;fontColor=#000000;" vertex="1" parent="n6d9y7SIBVnWGOxXG-Kv-1033">
          <mxGeometry x="870" width="59" height="20" as="geometry">
            <mxRectangle width="59" height="20" as="alternateBounds" />
          </mxGeometry>
        </mxCell>
        <mxCell id="n6d9y7SIBVnWGOxXG-Kv-1049" style="shape=partialRectangle;html=1;whiteSpace=wrap;connectable=0;fillColor=none;top=0;left=0;bottom=0;right=0;overflow=hidden;fontFamily=Roboto;fontSize=9;fontColor=#000000;" vertex="1" parent="n6d9y7SIBVnWGOxXG-Kv-1033">
          <mxGeometry x="929" width="61" height="20" as="geometry">
            <mxRectangle width="61" height="20" as="alternateBounds" />
          </mxGeometry>
        </mxCell>
        <mxCell id="n6d9y7SIBVnWGOxXG-Kv-1050" style="shape=partialRectangle;html=1;whiteSpace=wrap;connectable=0;fillColor=none;top=0;left=0;bottom=0;right=0;overflow=hidden;fontFamily=Roboto;fontSize=9;fontColor=#000000;" vertex="1" parent="n6d9y7SIBVnWGOxXG-Kv-1033">
          <mxGeometry x="990" width="59" height="20" as="geometry">
            <mxRectangle width="59" height="20" as="alternateBounds" />
          </mxGeometry>
        </mxCell>
        <mxCell id="n6d9y7SIBVnWGOxXG-Kv-1051" style="shape=partialRectangle;html=1;whiteSpace=wrap;connectable=0;fillColor=none;top=0;left=0;bottom=0;right=0;overflow=hidden;fontFamily=Roboto;fontSize=9;fontColor=#000000;" vertex="1" parent="n6d9y7SIBVnWGOxXG-Kv-1033">
          <mxGeometry x="1049" width="61" height="20" as="geometry">
            <mxRectangle width="61" height="20" as="alternateBounds" />
          </mxGeometry>
        </mxCell>
        <mxCell id="n6d9y7SIBVnWGOxXG-Kv-1052" style="shape=partialRectangle;html=1;whiteSpace=wrap;connectable=0;fillColor=none;top=0;left=0;bottom=0;right=0;overflow=hidden;fontFamily=Roboto;fontSize=9;fontColor=#6666FF;fontStyle=4" vertex="1" parent="n6d9y7SIBVnWGOxXG-Kv-1033">
          <mxGeometry x="1110" width="60" height="20" as="geometry">
            <mxRectangle width="60" height="20" as="alternateBounds" />
          </mxGeometry>
        </mxCell>
        <mxCell id="255" value="" style="group" parent="2" vertex="1" connectable="0">
          <mxGeometry x="1" y="110" width="1428" height="60" as="geometry" />
        </mxCell>
        <mxCell id="26" value="" style="html=1;shadow=0;dashed=0;fillColor=#F2F2F2;strokeColor=none;fontSize=16;fontColor=#181819;align=left;spacing=2;spacingLeft=55;fontFamily=Helvetica;" parent="255" vertex="1">
          <mxGeometry width="1428.0000000000005" height="60" as="geometry" />
        </mxCell>
        <mxCell id="27" value="" style="html=1;shadow=0;dashed=0;shape=mxgraph.bootstrap.logo;fillColor=#54407A;strokeColor=none;sketch=0;fontFamily=Helvetica;fontSize=12;" parent="26" vertex="1">
          <mxGeometry width="40" height="40" relative="1" as="geometry">
            <mxPoint x="10" y="10" as="offset" />
          </mxGeometry>
        </mxCell>
        <mxCell id="7" value="Breakout Filtering Utility" style="text;html=1;strokeColor=none;fillColor=none;align=left;verticalAlign=middle;whiteSpace=wrap;rounded=0;fontFamily=Helvetica;fontSize=17;fontStyle=1" parent="26" vertex="1">
          <mxGeometry x="79.33333333333334" y="10" width="396.66666666666674" height="40" as="geometry" />
        </mxCell>
        <mxCell id="22" value="Home" style="fillColor=none;strokeColor=none;fontSize=14;fontColor=#0085FC;fontFamily=Helvetica;" parent="255" vertex="1">
          <mxGeometry x="1045.1688311688313" y="15" width="105.97402597402599" height="30" as="geometry" />
        </mxCell>
        <mxCell id="23" value="Reports" style="fillColor=none;strokeColor=none;fontSize=14;fontColor=#0085FC;fontFamily=Helvetica;" parent="255" vertex="1">
          <mxGeometry x="1151.1428571428569" y="15" width="79.4805194805195" height="30" as="geometry" />
        </mxCell>
        <mxCell id="24" value="About" style="fillColor=none;strokeColor=none;fontSize=14;fontColor=#0085FC;fontFamily=Helvetica;" parent="255" vertex="1">
          <mxGeometry x="1230.623376623377" y="15" width="79.4805194805195" height="30" as="geometry" />
        </mxCell>
        <mxCell id="25" value="Settings" style="fillColor=none;strokeColor=none;fontSize=14;fontColor=#7D868C;fontFamily=Helvetica;" parent="255" vertex="1">
          <mxGeometry x="1310.1038961038957" y="15" width="105.97402597402599" height="30" as="geometry" />
        </mxCell>
      </root>
    </mxGraphModel>
  </diagram>
</mxfile>
